<svg id="trend-chart" width="660" height="400" title="Stack Overflow Trends Chart" version="1.1"
  xmlns="http://www.w3.org/2000/svg">
  <style>
    .legend,
    .axis-label {
      fill: #b5bbc0;
    }
  </style>
  <g class="chart-area" transform="translate(100, 20)">
    <g transform="translate(0,300)" fill="none" font-size="10" font-family="sans-serif" text-anchor="middle">
      <path class="domain" stroke="#b5bbc0" d="M0.5,6V0.5H410.5V6"></path>
      <g class="tick" opacity="1" transform="translate(39.886464112174394,0)">
        <line stroke="#b5bbc0" y2="6" x1="0.5" x2="0.5"></line><text fill="#b5bbc0" y="9" x="0.5" dy="0.71em"
          style="font-size: 12px;">2010</text>
      </g>
      <g class="tick" opacity="1" transform="translate(96.09259708452986,0)">
        <line stroke="#b5bbc0" y2="6" x1="0.5" x2="0.5"></line><text fill="#b5bbc0" y="9" x="0.5" dy="0.71em"
          style="font-size: 12px;">2012</text>
      </g>
      <g class="tick" opacity="1" transform="translate(152.37572475958717,0)">
        <line stroke="#b5bbc0" y2="6" x1="0.5" x2="0.5"></line><text fill="#b5bbc0" y="9" x="0.5" dy="0.71em"
          style="font-size: 12px;">2014</text>
      </g>
      <g class="tick" opacity="1" transform="translate(208.58185773194262,0)">
        <line stroke="#b5bbc0" y2="6" x1="0.5" x2="0.5"></line><text fill="#b5bbc0" y="9" x="0.5" dy="0.71em"
          style="font-size: 12px;">2016</text>
      </g>
      <g class="tick" opacity="1" transform="translate(264.86498540699995,0)">
        <line stroke="#b5bbc0" y2="6" x1="0.5" x2="0.5"></line><text fill="#b5bbc0" y="9" x="0.5" dy="0.71em"
          style="font-size: 12px;">2018</text>
      </g>
      <g class="tick" opacity="1" transform="translate(321.0711183793554,0)">
        <line stroke="#b5bbc0" y2="6" x1="0.5" x2="0.5"></line><text fill="#b5bbc0" y="9" x="0.5" dy="0.71em"
          style="font-size: 12px;">2020</text>
      </g>
      <g class="tick" opacity="1" transform="translate(377.3542460544127,0)">
        <line stroke="#b5bbc0" y2="6" x1="0.5" x2="0.5"></line><text fill="#b5bbc0" y="9" x="0.5" dy="0.71em"
          style="font-size: 12px;">2022</text>
      </g>
    </g>
    <g class="grid-lines" transform="translate(0,300)" fill="none" font-size="10" font-family="sans-serif"
      text-anchor="middle">
      <path class="domain" stroke="#b5bbc0" d="M0.5,-300V0.5H410.5V-300"></path>
      <g class="tick" opacity="1" transform="translate(39.886464112174394,0)">
        <line stroke="#b5bbc0" y2="-300" x1="0.5" x2="0.5" style="stroke: #ccc; fill: none;"></line>
      </g>
      <g class="tick" opacity="1" transform="translate(96.09259708452986,0)">
        <line stroke="#b5bbc0" y2="-300" x1="0.5" x2="0.5" style="stroke: #ccc; fill: none;"></line>
      </g>
      <g class="tick" opacity="1" transform="translate(152.37572475958717,0)">
        <line stroke="#b5bbc0" y2="-300" x1="0.5" x2="0.5" style="stroke: #ccc; fill: none;"></line>
      </g>
      <g class="tick" opacity="1" transform="translate(208.58185773194262,0)">
        <line stroke="#b5bbc0" y2="-300" x1="0.5" x2="0.5" style="stroke: #ccc; fill: none;"></line>
      </g>
      <g class="tick" opacity="1" transform="translate(264.86498540699995,0)">
        <line stroke="#b5bbc0" y2="-300" x1="0.5" x2="0.5" style="stroke: #ccc; fill: none;"></line>
      </g>
      <g class="tick" opacity="1" transform="translate(321.0711183793554,0)">
        <line stroke="#b5bbc0" y2="-300" x1="0.5" x2="0.5" style="stroke: #ccc; fill: none;"></line>
      </g>
      <g class="tick" opacity="1" transform="translate(377.3542460544127,0)">
        <line stroke="#b5bbc0" y2="-300" x1="0.5" x2="0.5" style="stroke: #ccc; fill: none;"></line>
      </g>
    </g><text x="205" y="360" class="axis-label x-axis-label"
      style="text-anchor: middle; font-weight: bold;">Year</text>
    <g fill="none" font-size="10" font-family="sans-serif" text-anchor="end">
      <path class="domain" stroke="#b5bbc0" d="M-6,300.5H0.5V0.5H-6"></path>
      <g class="tick" opacity="1" transform="translate(0,300)">
        <line stroke="#b5bbc0" x2="-6" y1="0.5" y2="0.5"></line><text fill="#b5bbc0" x="-9" y="0.5" dy="0.32em"
          style="font-size: 12px;">0.00%</text>
      </g>
      <g class="tick" opacity="1" transform="translate(0,280)">
        <line stroke="#b5bbc0" x2="-6" y1="0.5" y2="0.5"></line><text fill="#b5bbc0" x="-9" y="0.5" dy="0.32em"
          style="font-size: 12px;">0.20%</text>
      </g>
      <g class="tick" opacity="1" transform="translate(0,260)">
        <line stroke="#b5bbc0" x2="-6" y1="0.5" y2="0.5"></line><text fill="#b5bbc0" x="-9" y="0.5" dy="0.32em"
          style="font-size: 12px;">0.40%</text>
      </g>
      <g class="tick" opacity="1" transform="translate(0,240)">
        <line stroke="#b5bbc0" x2="-6" y1="0.5" y2="0.5"></line><text fill="#b5bbc0" x="-9" y="0.5" dy="0.32em"
          style="font-size: 12px;">0.60%</text>
      </g>
      <g class="tick" opacity="1" transform="translate(0,220)">
        <line stroke="#b5bbc0" x2="-6" y1="0.5" y2="0.5"></line><text fill="#b5bbc0" x="-9" y="0.5" dy="0.32em"
          style="font-size: 12px;">0.80%</text>
      </g>
      <g class="tick" opacity="1" transform="translate(0,200)">
        <line stroke="#b5bbc0" x2="-6" y1="0.5" y2="0.5"></line><text fill="#b5bbc0" x="-9" y="0.5" dy="0.32em"
          style="font-size: 12px;">1.00%</text>
      </g>
      <g class="tick" opacity="1" transform="translate(0,180)">
        <line stroke="#b5bbc0" x2="-6" y1="0.5" y2="0.5"></line><text fill="#b5bbc0" x="-9" y="0.5" dy="0.32em"
          style="font-size: 12px;">1.20%</text>
      </g>
      <g class="tick" opacity="1" transform="translate(0,160)">
        <line stroke="#b5bbc0" x2="-6" y1="0.5" y2="0.5"></line><text fill="#b5bbc0" x="-9" y="0.5" dy="0.32em"
          style="font-size: 12px;">1.40%</text>
      </g>
      <g class="tick" opacity="1" transform="translate(0,140)">
        <line stroke="#b5bbc0" x2="-6" y1="0.5" y2="0.5"></line><text fill="#b5bbc0" x="-9" y="0.5" dy="0.32em"
          style="font-size: 12px;">1.60%</text>
      </g>
      <g class="tick" opacity="1" transform="translate(0,120)">
        <line stroke="#b5bbc0" x2="-6" y1="0.5" y2="0.5"></line><text fill="#b5bbc0" x="-9" y="0.5" dy="0.32em"
          style="font-size: 12px;">1.80%</text>
      </g>
      <g class="tick" opacity="1" transform="translate(0,99.99999999999997)">
        <line stroke="#b5bbc0" x2="-6" y1="0.5" y2="0.5"></line><text fill="#b5bbc0" x="-9" y="0.5" dy="0.32em"
          style="font-size: 12px;">2.00%</text>
      </g>
      <g class="tick" opacity="1" transform="translate(0,80.00000000000003)">
        <line stroke="#b5bbc0" x2="-6" y1="0.5" y2="0.5"></line><text fill="#b5bbc0" x="-9" y="0.5" dy="0.32em"
          style="font-size: 12px;">2.20%</text>
      </g>
      <g class="tick" opacity="1" transform="translate(0,60)">
        <line stroke="#b5bbc0" x2="-6" y1="0.5" y2="0.5"></line><text fill="#b5bbc0" x="-9" y="0.5" dy="0.32em"
          style="font-size: 12px;">2.40%</text>
      </g>
      <g class="tick" opacity="1" transform="translate(0,40)">
        <line stroke="#b5bbc0" x2="-6" y1="0.5" y2="0.5"></line><text fill="#b5bbc0" x="-9" y="0.5" dy="0.32em"
          style="font-size: 12px;">2.60%</text>
      </g>
      <g class="tick" opacity="1" transform="translate(0,20)">
        <line stroke="#b5bbc0" x2="-6" y1="0.5" y2="0.5"></line><text fill="#b5bbc0" x="-9" y="0.5" dy="0.32em"
          style="font-size: 12px;">2.80%</text>
      </g>
      <g class="tick" opacity="1" transform="translate(0,0)">
        <line stroke="#b5bbc0" x2="-6" y1="0.5" y2="0.5"></line><text fill="#b5bbc0" x="-9" y="0.5" dy="0.32em"
          style="font-size: 12px;">3.00%</text>
      </g>
    </g>
    <g class="grid-lines" fill="none" font-size="10" font-family="sans-serif" text-anchor="end">
      <path class="domain" stroke="#b5bbc0" d="M410,300.5H0.5V0.5H410"></path>
      <g class="tick" opacity="1" transform="translate(0,300)">
        <line stroke="#b5bbc0" x2="410" y1="0.5" y2="0.5" style="stroke: #ccc; fill: none;"></line>
      </g>
      <g class="tick" opacity="1" transform="translate(0,280)">
        <line stroke="#b5bbc0" x2="410" y1="0.5" y2="0.5" style="stroke: #ccc; fill: none;"></line>
      </g>
      <g class="tick" opacity="1" transform="translate(0,260)">
        <line stroke="#b5bbc0" x2="410" y1="0.5" y2="0.5" style="stroke: #ccc; fill: none;"></line>
      </g>
      <g class="tick" opacity="1" transform="translate(0,240)">
        <line stroke="#b5bbc0" x2="410" y1="0.5" y2="0.5" style="stroke: #ccc; fill: none;"></line>
      </g>
      <g class="tick" opacity="1" transform="translate(0,220)">
        <line stroke="#b5bbc0" x2="410" y1="0.5" y2="0.5" style="stroke: #ccc; fill: none;"></line>
      </g>
      <g class="tick" opacity="1" transform="translate(0,200)">
        <line stroke="#b5bbc0" x2="410" y1="0.5" y2="0.5" style="stroke: #ccc; fill: none;"></line>
      </g>
      <g class="tick" opacity="1" transform="translate(0,180)">
        <line stroke="#b5bbc0" x2="410" y1="0.5" y2="0.5" style="stroke: #ccc; fill: none;"></line>
      </g>
      <g class="tick" opacity="1" transform="translate(0,160)">
        <line stroke="#b5bbc0" x2="410" y1="0.5" y2="0.5" style="stroke: #ccc; fill: none;"></line>
      </g>
      <g class="tick" opacity="1" transform="translate(0,140)">
        <line stroke="#b5bbc0" x2="410" y1="0.5" y2="0.5" style="stroke: #ccc; fill: none;"></line>
      </g>
      <g class="tick" opacity="1" transform="translate(0,120)">
        <line stroke="#b5bbc0" x2="410" y1="0.5" y2="0.5" style="stroke: #ccc; fill: none;"></line>
      </g>
      <g class="tick" opacity="1" transform="translate(0,99.99999999999997)">
        <line stroke="#b5bbc0" x2="410" y1="0.5" y2="0.5" style="stroke: #ccc; fill: none;"></line>
      </g>
      <g class="tick" opacity="1" transform="translate(0,80.00000000000003)">
        <line stroke="#b5bbc0" x2="410" y1="0.5" y2="0.5" style="stroke: #ccc; fill: none;"></line>
      </g>
      <g class="tick" opacity="1" transform="translate(0,60)">
        <line stroke="#b5bbc0" x2="410" y1="0.5" y2="0.5" style="stroke: #ccc; fill: none;"></line>
      </g>
      <g class="tick" opacity="1" transform="translate(0,40)">
        <line stroke="#b5bbc0" x2="410" y1="0.5" y2="0.5" style="stroke: #ccc; fill: none;"></line>
      </g>
      <g class="tick" opacity="1" transform="translate(0,20)">
        <line stroke="#b5bbc0" x2="410" y1="0.5" y2="0.5" style="stroke: #ccc; fill: none;"></line>
      </g>
      <g class="tick" opacity="1" transform="translate(0,0)">
        <line stroke="#b5bbc0" x2="410" y1="0.5" y2="0.5" style="stroke: #ccc; fill: none;"></line>
      </g>
    </g>
    <g class="lines">
      <path class="line"
        d="M2.3868357837575607,253.5996519974L4.696676864813264,259.6268968398L7.086720761183402,267.2445474156L9.396561842239105,263.8807223856L11.783397625996667,261.6858237548L14.170233409754228,255.0794747754L16.326085085406216,250.5170963433L18.7097127565512,268.1725333714L21.019553837606903,261.1581920904L23.406389621364465,261.0045792788L25.716230702420173,265.3309179499L28.103066486177728,264.7560749398L30.48990226993529,264.1664880096L32.799743350990994,257.1460373999L35.18978724736113,266.6368938161L37.49962832841683,267.9007061845L39.886464112174394,264.0796533687L42.273299895931956,266.0078339562L44.42915157158395,257.3227251661L46.81277924272893,258.5020446809L49.12262032378463,264.2933379908L51.5094561075422,264.5383655082L53.81929718859789,267.839262624L56.206132972355455,263.586276776L58.59296875611302,255.2130672463L60.902809837168725,260.041695622L63.29285373353886,255.4404594841L65.60269481459457,257.2736226175L67.98953059835213,259.8039339223L70.37636638210968,263.0722884249L72.53221805776167,262.9034992372L74.91584572890666,260.1400881336L77.22568680996235,259.4196509088L79.61252259371992,260.3255134346L81.92236367477562,259.4676889595L84.30919945853319,257.2789701984L86.69603524229075,260.4439721337L89.00587632334646,255.0517301124L91.39592021971659,252.1033094771L93.7057613007723,245.9260764L96.09259708452986,247.9135174356L98.47943286828742,251.2163498161L100.71227924664126,247.8955508507L103.09590691778625,249.2231610919L105.40574799884195,249.1476063532L107.79258378259951,249.6962575552L110.10242486365522,252.3212400729L112.48926064741278,249.16206281159998L114.87609643117034,245.2238215514L117.18593751222603,246.0069304538L119.57598140859618,245.0594282917L121.88582248965187,249.07744688449998L124.27265827340943,245.8862013008L126.659494057167,239.6128115565L128.815345732819,239.10643036099998L131.19897340396398,245.0110447902L133.50881448501968,239.9940719951L135.89565026877725,242.08469635839998L138.20549134983295,241.8816873133L140.59232713359052,235.5147872284L142.97916291734808,235.92822015410002L145.28900399840376,234.65730597980001L147.6790478947739,223.52504426299998L149.9888889758296,229.73042033989998L152.37572475958717,229.2231602286L154.76256054334473,224.4453970636L156.91841221899674,230.21033895760002L159.3020398901417,231.4436250869L161.6118809711974,230.05632126019998L163.99871675495496,226.03164753340002L166.30855783601066,229.0965639979L168.69539361976823,228.3724141332L171.0822294035258,225.3826414545L173.3920704845815,225.03957537949998L175.78211438095164,223.27705374229998L178.09195546200735,232.23237944689998L180.4787912457649,225.2880533657L182.86562702952247,221.61294372999998L185.02147870517445,222.8974440556L187.40510637631942,225.1826657258L189.71494745737513,231.7728219369L192.1017832411327,226.2868967588L194.4116243221884,234.03217992729998L196.79846010594596,234.60423906649999L199.18529588970353,235.5697852327L201.49513697075923,228.5884184579L203.88518086712935,229.411897684L206.19502194818506,230.7685566559L208.58185773194262,230.6943369759L210.96869351570018,224.9649443928L213.201539894054,228.4731774416L215.58516756519901,220.84162172139997L217.89500864625475,224.4824813204L220.28184443001228,226.8590448974L222.59168551106796,225.885776231L224.97852129482555,222.0194951263L227.3653570785831,224.1278231337L229.6751981596388,226.4413633405L232.06524205600894,226.11462031449997L234.37508313706468,226.82653658059996L236.7619189208222,230.0019999429L239.1487547045798,225.2178024298L241.30460638023175,220.3895850139L243.68823405137672,219.2672998644L245.99807513243246,222.38075649L248.38491091619002,220.4383822472L250.6947519972457,224.8817322711L253.0815877810033,226.2709017724L255.46842356476083,226.0944072286L257.77826464581653,215.5048333848L260.16830854218665,222.7067579281L262.4781496232424,223.9596583051L264.86498540699995,221.167055265L267.2518211907575,221.8982101949L269.4076728664095,227.16602172159998L271.7913005375545,227.6660322673L274.10114161861014,233.9386443848L276.48797740236773,231.9772471101L278.79781848342344,234.3915209757L281.18465426718103,235.4318514869L283.57149005093856,227.1118601222L285.8813311319943,230.1896566974L288.2713750283644,228.2017936005L290.5812161094201,232.88075787219998L292.9680518931777,229.78786973409998L295.3548876769352,229.5550260446L297.5107393525872,230.6587731453L299.89436702373223,227.6143131954L302.2042081047879,227.3409745962L304.59104388854547,230.3440243684L306.9008849696012,229.7774495654L309.2877207533587,229.3388185155L311.6745565371163,232.0767029024L313.984397618172,224.24695095639998L316.3744415145421,231.1842051367L318.68428259559784,233.32773276109998L321.0711183793554,233.1641169249L323.45795416311296,227.28261475829999L325.6908005414668,224.91480843239998L328.0744282126118,229.1920933935L330.3842692936675,234.7113483055L332.77110507742503,234.6316780419L335.08094615848074,239.4120226033L337.46778194223833,239.0127562146L339.85461772599587,236.38667761399998L342.1644588070516,229.47904336789998L344.5545027034217,229.7893681044L346.86434378447746,242.4689347328L349.251179568235,244.8946281291L351.6380153519925,237.03689484400002L353.7938670276445,236.1811911034L356.17749469878953,235.04182238840002L358.4873357798452,239.21339417029998L360.8741715636028,231.99890320819998L363.1840126446585,238.9365184046L365.57084842841607,237.4731200583L367.9576842121736,241.6939098784L370.2675252932293,233.5176297L372.6575691895994,224.2026901278L374.96741027065514,227.9916678639L377.3542460544127,225.1151102191L379.74108183817026,222.1470104806L381.89693351382226,225.5502454567L384.28056118496727,226.04055072810002L386.5904022660229,238.06659444669998L388.9772380497805,237.1073846907L391.2870791308362,232.33674272230002L393.67391491459375,238.5170728845L396.06075069835134,241.6330035943L398.37059177940705,236.3267688716L400.76063567577717,237.3430832181L403.0704767568329,238.72906576420002L405.45731254059046,237.93664505639998L407.844148324348,238.1816494176L410,245.4735393789"
        data-legend="bash" style="stroke: rgb(31, 119, 180); fill: none; stroke-width: 1px; opacity: 1;"></path>
      <path class="line"
        d="M2.3868357837575607,252.8746465599L4.696676864813264,254.7542809412L7.086720761183402,259.2554126389L9.396561842239105,257.1608567829L11.783397625996667,269.987228608L14.170233409754228,256.8071872841L16.326085085406216,257.9395318918L18.7097127565512,265.7973492946L21.019553837606903,266.650973007L23.406389621364465,272.8105323412L25.716230702420173,266.8925883125L28.103066486177728,270.3209052124L30.48990226993529,262.6351413433L32.799743350990994,262.7114870882L35.18978724736113,264.2725792046L37.49962832841683,272.983094372L39.886464112174394,273.7332465259L42.273299895931956,272.3110170637L44.42915157158395,267.3644368918L46.81277924272893,271.5960597088L49.12262032378463,273.0259455474L51.5094561075422,263.8146586818L53.81929718859789,269.331255595L56.206132972355455,267.7026107057L58.59296875611302,262.4580122506L60.902809837168725,266.6750900247L63.29285373353886,270.1971904342L65.60269481459457,270.8881293089L67.98953059835213,267.9943549099L70.37636638210968,271.575379906L72.53221805776167,268.7870840356L74.91584572890666,268.343447304L77.22568680996235,273.0466323321L79.61252259371992,273.8209270233L81.92236367477562,273.0450148253L84.30919945853319,270.7698217147L86.69603524229075,271.2677608534L89.00587632334646,266.2392950845L91.39592021971659,269.0513692006L93.7057613007723,264.6923396888L96.09259708452986,265.6211939293L98.47943286828742,263.5338163077L100.71227924664126,266.2897728126L103.09590691778625,269.1600794362L105.40574799884195,265.7250386434L107.79258378259951,265.44017694629997L110.10242486365522,259.9725120969L112.48926064741278,264.1645869329L114.87609643117034,265.0801862391L117.18593751222603,260.1095978726L119.57598140859618,260.6304566596L121.88582248965187,259.1132785204L124.27265827340943,259.6222895185L126.659494057167,256.7817180748L128.815345732819,261.8400296929L131.19897340396398,259.5220190817L133.50881448501968,259.0483737305L135.89565026877725,258.1864236346L138.20549134983295,261.5586430316L140.59232713359052,257.463423869L142.97916291734808,254.3473371307L145.28900399840376,253.9432349005L147.6790478947739,250.482608944L149.9888889758296,249.92912202579998L152.37572475958717,250.48818964790001L154.76256054334473,250.7019612046L156.91841221899674,253.8777153223L159.3020398901417,254.3130360829L161.6118809711974,257.5301066899L163.99871675495496,255.3211293826L166.30855783601066,254.0577575865L168.69539361976823,253.9536948L171.0822294035258,250.5584168988L173.3920704845815,257.3982679952L175.78211438095164,255.2700997821L178.09195546200735,256.0741427008L180.4787912457649,255.0636749546L182.86562702952247,252.2263478568L185.02147870517445,253.3354544491L187.40510637631942,252.615688293L189.71494745737513,257.751214856L192.1017832411327,252.9844425146L194.4116243221884,257.3270663905L196.79846010594596,260.4738694528L199.18529588970353,260.8998696663L201.49513697075923,253.4013752541L203.88518086712935,257.2741350273L206.19502194818506,255.0141676161L208.58185773194262,258.3052677871L210.96869351570018,255.1502306713L213.201539894054,255.3832687258L215.58516756519901,255.2939728893L217.89500864625475,255.9037338035L220.28184443001228,254.99860397129999L222.59168551106796,254.07086209850002L224.97852129482555,250.95670526819998L227.3653570785831,257.61988569150003L229.6751981596388,256.2219546898L232.06524205600894,256.3142606852L234.37508313706468,257.06659034070003L236.7619189208222,261.7153795606L239.1487547045798,258.1404198643L241.30460638023175,254.5083342937L243.68823405137672,251.8882858436L245.99807513243246,255.1821941239L248.38491091619002,252.3423642948L250.6947519972457,258.3113278573L253.0815877810033,258.8938927256L255.46842356476083,258.4982084437L257.77826464581653,256.5945419567L260.16830854218665,255.9434498013L262.4781496232424,256.6973191262L264.86498540699995,255.32169638919999L267.2518211907575,257.945190105L269.4076728664095,259.1404889113L271.7913005375545,259.5103929545L274.10114161861014,260.8458266719L276.48797740236773,259.7630344177L278.79781848342344,263.741014491L281.18465426718103,261.2847077796L283.57149005093856,262.643072818L285.8813311319943,261.0831027381L288.2713750283644,261.459264678L290.5812161094201,263.4104245772L292.9680518931777,263.1963495125L295.3548876769352,265.5740884407L297.5107393525872,263.2195490616L299.89436702373223,264.6995828734L302.2042081047879,263.6034586769L304.59104388854547,262.4469927731L306.9008849696012,262.0690812662L309.2877207533587,264.1884692791L311.6745565371163,262.9239644664L313.984397618172,263.7500746908L316.3744415145421,261.7690028537L318.68428259559784,263.5708230551L321.0711183793554,261.7883599344L323.45795416311296,261.8634614313L325.6908005414668,261.5828139779L328.0744282126118,265.5080923322L330.3842692936675,269.7667488419L332.77110507742503,270.3459637562L335.08094615848074,266.2655884646L337.46778194223833,266.6784779765L339.85461772599587,264.3736836469L342.1644588070516,261.9942670527L344.5545027034217,261.75092441510003L346.86434378447746,263.5812522621L349.251179568235,266.2001126663L351.6380153519925,261.8382155335L353.7938670276445,269.10898080009997L356.17749469878953,268.55905558530003L358.4873357798452,266.58999208119997L360.8741715636028,265.21602883L363.1840126446585,267.0257199385L365.57084842841607,265.2628444768L367.9576842121736,265.5387415322L370.2675252932293,267.1828095586L372.6575691895994,262.7781067592L374.96741027065514,265.8813388881L377.3542460544127,264.4971412188L379.74108183817026,260.76421413549997L381.89693351382226,263.4253389252L384.28056118496727,267.7816133001L386.5904022660229,267.9998859685L388.9772380497805,268.9245214451L391.2870791308362,266.655426923L393.67391491459375,270.0655915715L396.06075069835134,268.669486943L398.37059177940705,265.974377093L400.76063567577717,262.5229656632L403.0704767568329,267.6556156687L405.45731254059046,267.9618897453L407.844148324348,263.80006497429997L410,272.4819731445"
        data-legend="shell" style="stroke: rgb(255, 127, 14); fill: none; stroke-width: 1px; opacity: 1;"></path>
      <path class="line"
        d="M2.3868357837575607,239.0995432466L4.696676864813264,241.5286092163L7.086720761183402,252.0651913398L9.396561842239105,243.7211255775L11.783397625996667,262.962962963L14.170233409754228,259.1108039623L16.326085085406216,257.4447028552L18.7097127565512,258.196760249L21.019553837606903,261.5505335845L23.406389621364465,257.7847738982L25.716230702420173,242.5305306556L28.103066486177728,264.137760465L30.48990226993529,258.0411013446L32.799743350990994,263.5463045415L35.18978724736113,250.3493931593L37.49962832841683,260.4108709609L39.886464112174394,265.6511685338L42.273299895931956,269.3845391923L44.42915157158395,267.9437664144L46.81277924272893,268.171471163L49.12262032378463,264.0992800451L51.5094561075422,258.2059307775L53.81929718859789,260.0477437751L56.206132972355455,267.0693285627L58.59296875611302,265.4218533887L60.902809837168725,266.9909659486L63.29285373353886,266.8696922788L65.60269481459457,273.3503273276L67.98953059835213,273.2866269327L70.37636638210968,275.8269256466L72.53221805776167,269.6845800218L74.91584572890666,270.867557818L77.22568680996235,269.8402837619L79.61252259371992,267.631301242L81.92236367477562,268.9518504099L84.30919945853319,268.8024058686L86.69603524229075,265.7574684143L89.00587632334646,262.5761100936L91.39592021971659,269.2355872411L93.7057613007723,267.30413921859997L96.09259708452986,266.657740846L98.47943286828742,263.1286364889L100.71227924664126,264.4878898449L103.09590691778625,268.3034149761L105.40574799884195,260.2739009984L107.79258378259951,262.2913930681L110.10242486365522,253.1713814089L112.48926064741278,254.0681015053L114.87609643117034,253.2120142419L117.18593751222603,251.1107529482L119.57598140859618,255.5307748797L121.88582248965187,249.6721628333L124.27265827340943,253.42507762489998L126.659494057167,247.50656167979997L128.815345732819,247.051591352L131.19897340396398,242.0736006016L133.50881448501968,241.8692572452L135.89565026877725,228.2741239515L138.20549134983295,227.2237811695L140.59232713359052,231.07773130380002L142.97916291734808,235.4419068346L145.28900399840376,225.7519053733L147.6790478947739,227.694328631L149.9888889758296,228.63531000749998L152.37572475958717,220.269463631L154.76256054334473,222.5163433716L156.91841221899674,228.1733926312L159.3020398901417,233.5698061546L161.6118809711974,222.2720820551L163.99871675495496,214.30344399630002L166.30855783601066,211.6407862492L168.69539361976823,217.27691890429998L171.0822294035258,226.838589914L173.3920704845815,217.3572958377L175.78211438095164,224.9068881632L178.09195546200735,219.9227734191L180.4787912457649,208.8538508187L182.86562702952247,208.7577056689L185.02147870517445,207.41329939550002L187.40510637631942,208.0436593636L189.71494745737513,202.48611593200002L192.1017832411327,186.8838924808L194.4116243221884,185.0201511076L196.79846010594596,185.1410616542L199.18529588970353,203.4963449879L201.49513697075923,200.47787916800002L203.88518086712935,200.87147200779998L206.19502194818506,208.39248678180002L208.58185773194262,200.46704780149997L210.96869351570018,199.1147790159L213.201539894054,200.16256096040001L215.58516756519901,203.5129093781L217.89500864625475,193.70030515899998L220.28184443001228,170.68941919739999L222.59168551106796,176.87567752619998L224.97852129482555,183.695742731L227.3653570785831,199.2883672473L229.6751981596388,195.5087181674L232.06524205600894,192.9757019688L234.37508313706468,191.4842515276L236.7619189208222,176.46067255229997L239.1487547045798,190.3348189833L241.30460638023175,175.79973646899998L243.68823405137672,184.10221619179998L245.99807513243246,183.7335180896L248.38491091619002,165.8106048157L250.6947519972457,159.2585933726L253.0815877810033,163.81466952859998L255.46842356476083,174.06138027740002L257.77826464581653,168.12103650580002L260.16830854218665,179.00887706609998L262.4781496232424,180.7264841421L264.86498540699995,167.9185834017L267.2518211907575,176.93851547190002L269.4076728664095,178.6490056935L271.7913005375545,175.60796606589997L274.10114161861014,172.16071913369998L276.48797740236773,162.1195837375L278.79781848342344,159.4647362349L281.18465426718103,156.4014615823L283.57149005093856,181.2583385999L285.8813311319943,170.740305523L288.2713750283644,175.8432902545L290.5812161094201,185.0151497718L292.9680518931777,165.1438194313L295.3548876769352,173.24060733689998L297.5107393525872,173.4097493388L299.89436702373223,176.712962657L302.2042081047879,164.46812789069998L304.59104388854547,154.41677118799998L306.9008849696012,150.96169984230002L309.2877207533587,162.5251568605L311.6745565371163,171.8652211957L313.984397618172,186.6027977507L316.3744415145421,187.8329851582L318.68428259559784,201.7099565447L321.0711183793554,180.46792015570003L323.45795416311296,184.19599531490002L325.6908005414668,194.0774044754L328.0744282126118,204.8156009552L330.3842692936675,204.31555278629997L332.77110507742503,198.03483172519998L335.08094615848074,200.3190763835L337.46778194223833,208.8939162669L339.85461772599587,211.32688394680002L342.1644588070516,216.2875600748L344.5545027034217,214.96878695790002L346.86434378447746,217.2095548318L349.251179568235,207.55586370269998L351.6380153519925,198.03048335709997L353.7938670276445,201.5560926595L356.17749469878953,213.0183306639L358.4873357798452,208.518420755L360.8741715636028,205.7542402758L363.1840126446585,202.4612653982L365.57084842841607,204.1419922586L367.9576842121736,217.0907620236L370.2675252932293,219.10180960949998L372.6575691895994,212.1901700364L374.96741027065514,218.7437149835L377.3542460544127,215.2485200115L379.74108183817026,206.9475619025L381.89693351382226,208.563347313L384.28056118496727,224.21537118599997L386.5904022660229,214.8326586465L388.9772380497805,213.52265394979997L391.2870791308362,215.1024689971L393.67391491459375,214.8923681933L396.06075069835134,218.01584019849997L398.37059177940705,215.742419122L400.76063567577717,215.89626474020002L403.0704767568329,222.4735117832L405.45731254059046,208.3307473603L407.844148324348,208.85042001210002L410,208.4431081782"
        data-legend="vba" style="stroke: rgb(44, 160, 44); fill: none; stroke-width: 1px; opacity: 1;"></path>
      <path class="line"
        d="M2.3868357837575607,91.92343942580001L4.696676864813264,128.06626757629996L7.086720761183402,173.7716705281L9.396561842239105,166.4426711466L11.783397625996667,168.4546615582L14.170233409754228,135.2914075098L16.326085085406216,137.20124696919999L18.7097127565512,129.9368201036L21.019553837606903,142.6710608914L23.406389621364465,145.8070978821L25.716230702420173,144.1452978106L28.103066486177728,150.36789711249997L30.48990226993529,153.90952803899998L32.799743350990994,162.8116651826L35.18978724736113,128.19313823360002L37.49962832841683,146.993366146L39.886464112174394,146.44051815109998L42.273299895931956,145.12178650219997L44.42915157158395,165.98177043110002L46.81277924272893,148.5123184465L49.12262032378463,149.60509208050001L51.5094561075422,146.21229939759996L53.81929718859789,148.97715592990002L56.206132972355455,142.6293874579L58.59296875611302,146.04491865910003L60.902809837168725,153.90738517920002L63.29285373353886,165.742683121L65.60269481459457,152.1232837032L67.98953059835213,148.6662214438L70.37636638210968,148.5234989007L72.53221805776167,136.6557305119L74.91584572890666,144.7672033908L77.22568680996235,143.1895152402L79.61252259371992,141.91086938880002L81.92236367477562,141.96392025319997L84.30919945853319,125.93054085200001L86.69603524229075,147.9749675287L89.00587632334646,140.403940399L91.39592021971659,139.7303047888L93.7057613007723,137.19782930440002L96.09259708452986,135.62093479260002L98.47943286828742,134.6055979644L100.71227924664126,135.50310074030003L103.09590691778625,146.81281881549998L105.40574799884195,152.5205911125L107.79258378259951,155.0791419948L110.10242486365522,154.2007608765L112.48926064741278,153.6009612992L114.87609643117034,151.2674599069L117.18593751222603,148.5642141457L119.57598140859618,155.23703320919998L121.88582248965187,158.606283174L124.27265827340943,152.73635655059996L126.659494057167,154.42609147550002L128.815345732819,151.6516655842L131.19897340396398,155.53649480659996L133.50881448501968,158.6957179238L135.89565026877725,158.71211639069998L138.20549134983295,161.0065475784L140.59232713359052,153.4588329952L142.97916291734808,154.957052455L145.28900399840376,147.73403993779996L147.6790478947739,153.04700439779998L149.9888889758296,151.4908710386L152.37572475958717,153.11673914899998L154.76256054334473,160.8402100526L156.91841221899674,157.17126353729998L159.3020398901417,157.8051588413L161.6118809711974,147.1198314942L163.99871675495496,155.47626435L166.30855783601066,154.8384345523L168.69539361976823,148.4848484849L171.0822294035258,162.29154154609998L173.3920704845815,163.87233448179998L175.78211438095164,172.4503655055L178.09195546200735,161.031026686L180.4787912457649,152.8805336568L182.86562702952247,164.9303126514L185.02147870517445,169.55138402799997L187.40510637631942,167.1329042392L189.71494745737513,164.2506942035L192.1017832411327,161.8482421436L194.4116243221884,166.82746322810002L196.79846010594596,171.5955899498L199.18529588970353,177.7695925654L201.49513697075923,181.5032651473L203.88518086712935,189.5118174318L206.19502194818506,181.5178336693L208.58185773194262,180.7051920797L210.96869351570018,179.7405349861L213.201539894054,187.1076653746L215.58516756519901,186.5430756927L217.89500864625475,186.67046562039997L220.28184443001228,184.5949600627L222.59168551106796,191.59582358650002L224.97852129482555,195.8038268211L227.3653570785831,186.75091676429997L229.6751981596388,195.105499329L232.06524205600894,198.7389921159L234.37508313706468,198.8264868027L236.7619189208222,195.9458301192L239.1487547045798,206.3636940215L241.30460638023175,210.3693943296L243.68823405137672,215.9317051109L245.99807513243246,217.77989477559998L248.38491091619002,219.8150362391L250.6947519972457,214.6000247211L253.0815877810033,220.7483361136L255.46842356476083,223.9133821468L257.77826464581653,222.92710733209998L260.16830854218665,229.8801446633L262.4781496232424,229.2421683314L264.86498540699995,226.9015060811L267.2518211907575,231.9332668731L269.4076728664095,237.9216011785L271.7913005375545,238.6125312535L274.10114161861014,237.6187746976L276.48797740236773,235.1228079373L278.79781848342344,240.4135552823L281.18465426718103,243.81483211649999L283.57149005093856,245.4392247736L285.8813311319943,243.3304272014L288.2713750283644,243.50971307819998L290.5812161094201,238.0968818318L292.9680518931777,237.868376022L295.3548876769352,245.55580183979998L297.5107393525872,246.90767099139998L299.89436702373223,249.29696641179999L302.2042081047879,249.1252764931L304.59104388854547,247.5153795617L306.9008849696012,249.1121479642L309.2877207533587,242.3611933231L311.6745565371163,246.8329650448L313.984397618172,243.6333578984L316.3744415145421,253.3035677713L318.68428259559784,249.06024942919998L321.0711183793554,247.5107254694L323.45795416311296,254.4731998439L325.6908005414668,253.9382474508L328.0744282126118,257.603696825L330.3842692936675,262.3438896866L332.77110507742503,263.9326900448L335.08094615848074,257.5579696025L337.46778194223833,262.3173789796L339.85461772599587,263.3741477172L342.1644588070516,264.9890902868L344.5545027034217,262.4994386144L346.86434378447746,262.2240318495L349.251179568235,262.2279036848L351.6380153519925,259.3043344724L353.7938670276445,266.1896097548L356.17749469878953,261.588657531L358.4873357798452,269.8329499605L360.8741715636028,267.1745857653L363.1840126446585,263.7690009201L365.57084842841607,263.0297416218L367.9576842121736,262.4212193725L370.2675252932293,264.8932381324L372.6575691895994,266.754081719L374.96741027065514,266.5098405402L377.3542460544127,262.5575551096L379.74108183817026,264.1222318447L381.89693351382226,263.8317240483L384.28056118496727,263.1789866286L386.5904022660229,264.4363988825L388.9772380497805,264.6970697085L391.2870791308362,266.2807687985L393.67391491459375,265.0031548519L396.06075069835134,262.3079614492L398.37059177940705,266.5120280193L400.76063567577717,265.9632402996L403.0704767568329,266.8219975159L405.45731254059046,268.7167143325L407.844148324348,268.4410822853L410,273.2463627794"
        data-legend="ruby" style="stroke: rgb(214, 39, 40); fill: none; stroke-width: 1px; opacity: 1;"></path>
      <path class="line"
        d="M2.3868357837575607,205.74929311969998L4.696676864813264,210.9007378533L7.086720761183402,222.50539266599998L9.396561842239105,188.2822343554L11.783397625996667,206.13026819930002L14.170233409754228,205.5517161945L16.326085085406216,232.2084219903L18.7097127565512,223.5190727282L21.019553837606903,223.1010671689L23.406389621364465,211.9919862622L25.716230702420173,219.7301433614L28.103066486177728,223.01984789469998L30.48990226993529,223.7389360204L32.799743350990994,221.5271593945L35.18978724736113,215.4100772343L37.49962832841683,230.18403595130002L39.886464112174394,232.4248478998L42.273299895931956,221.8855522039L44.42915157158395,224.494052217L46.81277924272893,226.67351584379998L49.12262032378463,244.4994275291L51.5094561075422,226.0009770043L53.81929718859789,227.88700639900003L56.206132972355455,213.39866694109998L58.59296875611302,224.2573931371L60.902809837168725,221.3468949397L63.29285373353886,232.8713415605L65.60269481459457,227.5824112161L67.98953059835213,239.8949105985L70.37636638210968,241.5716142512L72.53221805776167,239.7680471485L74.91584572890666,242.1558007215L77.22568680996235,241.78473377289998L79.61252259371992,242.4669210164L81.92236367477562,234.3097027964L84.30919945853319,242.75756752459998L86.69603524229075,250.8009603653L89.00587632334646,245.0522251374L91.39592021971659,244.18193373679998L93.7057613007723,247.9574760344L96.09259708452986,251.3686738246L98.47943286828742,250.3249542147L100.71227924664126,254.42737660859999L103.09590691778625,253.4286048052L105.40574799884195,252.0598579718L107.79258378259951,243.1682909784L110.10242486365522,252.81715585220002L112.48926064741278,245.820268339L114.87609643117034,249.6363470376L117.18593751222603,254.1327531094L119.57598140859618,256.6867027498L121.88582248965187,259.0389390268L124.27265827340943,257.833403611L126.659494057167,250.9271867333L128.815345732819,250.70520553030002L131.19897340396398,250.8271842835L133.50881448501968,245.4381582052L135.89565026877725,247.367081196L138.20549134983295,245.7600438027L140.59232713359052,250.6599381179L142.97916291734808,258.4202111816L145.28900399840376,255.5276313274L147.6790478947739,253.2240561997L149.9888889758296,253.5186503374L152.37572475958717,256.8303914045L154.76256054334473,257.5072339514L156.91841221899674,256.0116590928L159.3020398901417,257.4245205721L161.6118809711974,254.553779935L163.99871675495496,258.1135587962L166.30855783601066,258.3221984046L168.69539361976823,257.8371181301L171.0822294035258,258.8087915022L173.3920704845815,262.86898221440003L175.78211438095164,260.4010599961L178.09195546200735,263.3951189173L180.4787912457649,264.2813826562L182.86562702952247,266.2176302117L185.02147870517445,266.1682044756L187.40510637631942,269.4363230199L189.71494745737513,271.3098750434L192.1017832411327,268.9600823443L194.4116243221884,270.2629436079L196.79846010594596,269.35614598029997L199.18529588970353,273.706579022L201.49513697075923,273.078752757L203.88518086712935,273.7767177946L206.19502194818506,272.1321531856L208.58185773194262,275.2280963488L210.96869351570018,273.239994434L213.201539894054,276.5912217082L215.58516756519901,274.7759571807L217.89500864625475,274.2239216919L220.28184443001228,276.021153941L222.59168551106796,275.9228618703L224.97852129482555,274.3952900664L227.3653570785831,272.688370779L229.6751981596388,276.670910065L232.06524205600894,278.330029047L234.37508313706468,278.9688515002L236.7619189208222,281.3719608012L239.1487547045798,276.8215548009L241.30460638023175,279.4586090974L243.68823405137672,279.1383989146L245.99807513243246,280.7846363696L248.38491091619002,282.3196404994L250.6947519972457,281.4030316992L253.0815877810033,279.7316146958L255.46842356476083,281.492444306L257.77826464581653,280.2270622046L260.16830854218665,284.2185491826L262.4781496232424,283.5269095232L264.86498540699995,284.5610939568L267.2518211907575,284.7493546535L269.4076728664095,283.1651799806L271.7913005375545,284.2644077074L274.10114161861014,285.4604687642L276.48797740236773,284.40326089810003L278.79781848342344,284.4061006378L281.18465426718103,285.4737663901L283.57149005093856,285.6049434731L285.8813311319943,282.5000315884L288.2713750283644,284.0824731096L290.5812161094201,283.1243048365L292.9680518931777,281.9376918272L295.3548876769352,282.5446082235L297.5107393525872,285.4515682076L299.89436702373223,286.3161304397L302.2042081047879,285.1196460889L304.59104388854547,282.3806964105L306.9008849696012,284.0891544427L309.2877207533587,285.7937729372L311.6745565371163,285.2437378576L313.984397618172,286.1241128396L316.3744415145421,284.844140417L318.68428259559784,288.0096838987L321.0711183793554,288.6192768758L323.45795416311296,287.4504991913L325.6908005414668,287.1726765053L328.0744282126118,287.8393915274L330.3842692936675,288.4051689107L332.77110507742503,288.3502000471L335.08094615848074,289.2829306314L337.46778194223833,286.9167030092L339.85461772599587,288.1483596902L342.1644588070516,287.8067911183L344.5545027034217,288.7722870103L346.86434378447746,290.1224514417L349.251179568235,289.5278126851L351.6380153519925,289.7876914808L353.7938670276445,289.68036281679997L356.17749469878953,289.9151687727L358.4873357798452,290.9498849882L360.8741715636028,287.9352892789L363.1840126446585,288.7643193865L365.57084842841607,290.2405134483L367.9576842121736,290.4789188097L370.2675252932293,289.230534403L372.6575691895994,293.401573471L374.96741027065514,290.7520471197L377.3542460544127,289.2057816533L379.74108183817026,291.5165868402L381.89693351382226,291.6284664651L384.28056118496727,292.0644367734L386.5904022660229,293.3006442785L388.9772380497805,290.8034383275L391.2870791308362,290.2588887641L393.67391491459375,291.4158681713L396.06075069835134,293.4794363689L398.37059177940705,293.7018034349L400.76063567577717,291.9482934042L403.0704767568329,291.9972657325L405.45731254059046,293.7097951071L407.844148324348,292.6671926487L410,291.6766461981"
        data-legend="perl" style="stroke: rgb(148, 103, 189); fill: none; stroke-width: 1px; opacity: 1;"></path>
      <path class="line"
        d="M2.3868357837575607,279.69984774889997L4.696676864813264,279.1173604344L7.086720761183402,277.6304226253L9.396561842239105,273.96052078959997L11.783397625996667,279.5657726693L14.170233409754228,270.0529831836L16.326085085406216,271.7947449157L18.7097127565512,272.4478647096L21.019553837606903,278.421217828L23.406389621364465,272.8105323412L25.716230702420173,280.0106193585L28.103066486177728,276.8132071972L30.48990226993529,278.2548773392L32.799743350990994,285.251558326L35.18978724736113,282.9243944728L37.49962832841683,285.0203295528L39.886464112174394,278.8967963541L42.273299895931956,280.4151096304L44.42915157158395,283.1994438437L46.81277924272893,285.8987530469L49.12262032378463,285.2515961267L51.5094561075422,286.0686435925L53.81929718859789,284.2511853056L56.206132972355455,280.6848946377L58.59296875611302,283.0402423764L60.902809837168725,284.6800176891L63.29285373353886,280.9030540647L65.60269481459457,283.48878975729997L67.98953059835213,281.9810738272L70.37636638210968,283.8441261859L72.53221805776167,281.5514713949L74.91584572890666,282.4363976737L77.22568680996235,282.1646860785L79.61252259371992,281.6340612063L81.92236367477562,281.8303433267L84.30919945853319,282.6680032603L86.69603524229075,282.091549573L89.00587632334646,285.7432800357L91.39592021971659,282.6835041956L93.7057613007723,280.1696702362L96.09259708452986,277.8006202006L98.47943286828742,278.0392538209L100.71227924664126,277.0259921619L103.09590691778625,277.0258167517L105.40574799884195,273.8644085516L107.79258378259951,274.1185325132L110.10242486365522,272.7954772481L112.48926064741278,276.3941326622L114.87609643117034,277.4809044156L117.18593751222603,276.2269320655L119.57598140859618,274.705578372L121.88582248965187,277.4007939458L124.27265827340943,274.89170851389997L126.659494057167,274.3453120992L128.815345732819,277.2084067923L131.19897340396398,276.2654509565L133.50881448501968,271.8117314009L135.89565026877725,272.37885518630003L138.20549134983295,270.1138411699L140.59232713359052,271.1887168626L142.97916291734808,269.3014717057L145.28900399840376,269.29548993369997L147.6790478947739,271.7859386602L149.9888889758296,271.3446129698L152.37572475958717,269.7279781701L154.76256054334473,270.3140070732L156.91841221899674,269.7367974354L159.3020398901417,268.9888712572L161.6118809711974,265.428820001L163.99871675495496,262.3332299101L166.30855783601066,261.1082997391L168.69539361976823,261.2274083389L171.0822294035258,261.296036787L173.3920704845815,263.5673712637L175.78211438095164,269.9386095702L178.09195546200735,263.7190559181L180.4787912457649,258.399029715L182.86562702952247,259.9992824984L185.02147870517445,262.3501962033L187.40510637631942,260.4157933556L189.71494745737513,262.523863242L192.1017832411327,259.0423193627L194.4116243221884,256.2963192018L196.79846010594596,254.97796085139998L199.18529588970353,259.65319884400003L201.49513697075923,263.2400640056L203.88518086712935,259.1391529428L206.19502194818506,258.5195571525L208.58185773194262,256.9692550059L210.96869351570018,253.1699902594L213.201539894054,252.632237089L215.58516756519901,252.2178701065L217.89500864625475,254.2527866391L220.28184443001228,252.4802776729L222.59168551106796,251.9027785703L224.97852129482555,246.9021633481L227.3653570785831,249.2027240996L229.6751981596388,250.2312748052L232.06524205600894,249.51357831159999L234.37508313706468,249.2887987357L236.7619189208222,246.9729436302L239.1487547045798,247.0701176797L241.30460638023175,248.1956141626L243.68823405137672,251.0967887834L245.99807513243246,242.2997813238L248.38491091619002,239.9887797719L250.6947519972457,242.8044902409L253.0815877810033,242.383129416L255.46842356476083,240.052967752L257.77826464581653,240.6218084223L260.16830854218665,243.5095794603L262.4781496232424,247.4529265801L264.86498540699995,240.19787006119998L267.2518211907575,240.4498610277L269.4076728664095,241.8380350024L271.7913005375545,245.2053090521L274.10114161861014,247.15091550789998L276.48797740236773,237.7441086268L278.79781848342344,233.1871141144L281.18465426718103,236.967664732L283.57149005093856,241.1558177095L285.8813311319943,235.11744563640002L288.2713750283644,236.3976265952L290.5812161094201,237.7133433054L292.9680518931777,234.2015916561L295.3548876769352,239.6680704866L297.5107393525872,235.9491119789L299.89436702373223,236.5385759521L302.2042081047879,225.5312018232L304.59104388854547,226.0885146032L306.9008849696012,229.7774495654L309.2877207533587,229.1168462176L311.6745565371163,233.3372881105L313.984397618172,231.6828330711L316.3744415145421,235.6217315911L318.68428259559784,236.8408190074L321.0711183793554,229.5774647888L323.45795416311296,231.7446594903L325.6908005414668,228.86666062019998L328.0744282126118,236.48845847709998L330.3842692936675,236.87860645310002L332.77110507742503,238.3972699459L335.08094615848074,239.8991621201L337.46778194223833,235.0605102486L339.85461772599587,224.9634098455L342.1644588070516,232.25995065680002L344.5545027034217,230.7624365635L346.86434378447746,234.0994088552L349.251179568235,235.3613265734L351.6380153519925,225.13533228400001L353.7938670276445,227.219400918L356.17749469878953,227.10743311390002L358.4873357798452,232.3503902863L360.8741715636028,228.0817893377L363.1840126446585,226.0724782818L365.57084842841607,223.578257849L367.9576842121736,222.3147180749L370.2675252932293,222.74816410300002L372.6575691895994,227.24811775659998L374.96741027065514,226.2857348083L377.3542460544127,223.17552410989998L379.74108183817026,225.5050281897L381.89693351382226,219.5357456355L384.28056118496727,224.21537118599997L386.5904022660229,227.875021381L388.9772380497805,231.3224507354L391.2870791308362,228.81495635239997L393.67391491459375,223.5498686702L396.06075069835134,224.218327555L398.37059177940705,218.20025192789998L400.76063567577717,221.3128673592L403.0704767568329,224.89100442659998L405.45731254059046,221.5821123347L407.844148324348,220.2673225972L410,224.58022269219998"
        data-legend="powershell" style="stroke: rgb(140, 86, 75); fill: none; stroke-width: 1px; opacity: 1;"></path>
    </g>
  </g>
  <g transform="translate(20, 150)"><text transform="rotate(-90)" x="-50" y="0" dy="1em" class="axis-label y-axis-label"
      style="text-anchor: middle; font-weight: bold;">% of Stack Overflow questions that month</text></g>
  <g class="legend" transform="translate(530, 30)" style="font-size: 12px;"><text class="legend-title"
      style="font-weight: bold;">Tag</text>
    <g class="legend-items" transform="translate(0,20)"><text y="0em" x="1em" style="opacity: 1;">ruby</text><text
        y="1em" x="1em" style="opacity: 1;">vba</text><text y="2em" x="1em" style="opacity: 1;">perl</text><text y="3em"
        x="1em" style="opacity: 1; font-weight: normal;">bash</text><text y="4em" x="1em"
        style="opacity: 1; font-weight: normal;">powershell</text><text y="5em" x="1em"
        style="opacity: 1; font-weight: normal;">shell</text>
      <circle cy="-0.25em" cx="0" r="0.4em" style="fill: rgb(214, 39, 40);"></circle>
      <circle cy="0.75em" cx="0" r="0.4em" style="fill: rgb(44, 160, 44);"></circle>
      <circle cy="1.75em" cx="0" r="0.4em" style="fill: rgb(148, 103, 189);"></circle>
      <circle cy="2.75em" cx="0" r="0.4em" style="fill: rgb(31, 119, 180);"></circle>
      <circle cy="3.75em" cx="0" r="0.4em" style="fill: rgb(140, 86, 75);"></circle>
      <circle cy="4.75em" cx="0" r="0.4em" style="fill: rgb(255, 127, 14);"></circle>
    </g>
    <rect class="legend-box"></rect>
  </g>
</svg>
