<svg id="trend-chart" width="660" height="400" title="Stack Overflow Trends Chart" version="1.1"
  xmlns="http://www.w3.org/2000/svg">
  <style>
    .legend,
    .axis-label {
      fill: #b5bbc0;
    }
  </style>
  <g class="chart-area" transform="translate(100, 20)">
    <g transform="translate(0,300)" fill="none" font-size="10" font-family="sans-serif" text-anchor="middle">
      <path class="domain" stroke="#b5bbc0" d="M0.5,6V0.5H410.5V6"></path>
      <g class="tick" opacity="1" transform="translate(39.886464112174394,0)">
        <line stroke="#b5bbc0" y2="6" x1="0.5" x2="0.5"></line><text fill="#b5bbc0" y="9" x="0.5" dy="0.71em"
          style="font-size: 12px;">2010</text>
      </g>
      <g class="tick" opacity="1" transform="translate(96.09259708452986,0)">
        <line stroke="#b5bbc0" y2="6" x1="0.5" x2="0.5"></line><text fill="#b5bbc0" y="9" x="0.5" dy="0.71em"
          style="font-size: 12px;">2012</text>
      </g>
      <g class="tick" opacity="1" transform="translate(152.37572475958717,0)">
        <line stroke="#b5bbc0" y2="6" x1="0.5" x2="0.5"></line><text fill="#b5bbc0" y="9" x="0.5" dy="0.71em"
          style="font-size: 12px;">2014</text>
      </g>
      <g class="tick" opacity="1" transform="translate(208.58185773194262,0)">
        <line stroke="#b5bbc0" y2="6" x1="0.5" x2="0.5"></line><text fill="#b5bbc0" y="9" x="0.5" dy="0.71em"
          style="font-size: 12px;">2016</text>
      </g>
      <g class="tick" opacity="1" transform="translate(264.86498540699995,0)">
        <line stroke="#b5bbc0" y2="6" x1="0.5" x2="0.5"></line><text fill="#b5bbc0" y="9" x="0.5" dy="0.71em"
          style="font-size: 12px;">2018</text>
      </g>
      <g class="tick" opacity="1" transform="translate(321.0711183793554,0)">
        <line stroke="#b5bbc0" y2="6" x1="0.5" x2="0.5"></line><text fill="#b5bbc0" y="9" x="0.5" dy="0.71em"
          style="font-size: 12px;">2020</text>
      </g>
      <g class="tick" opacity="1" transform="translate(377.3542460544127,0)">
        <line stroke="#b5bbc0" y2="6" x1="0.5" x2="0.5"></line><text fill="#b5bbc0" y="9" x="0.5" dy="0.71em"
          style="font-size: 12px;">2022</text>
      </g>
    </g>
    <g class="grid-lines" transform="translate(0,300)" fill="none" font-size="10" font-family="sans-serif"
      text-anchor="middle">
      <path class="domain" stroke="#b5bbc0" d="M0.5,-300V0.5H410.5V-300"></path>
      <g class="tick" opacity="1" transform="translate(39.886464112174394,0)">
        <line stroke="#b5bbc0" y2="-300" x1="0.5" x2="0.5" style="stroke: #ccc; fill: none;"></line>
      </g>
      <g class="tick" opacity="1" transform="translate(96.09259708452986,0)">
        <line stroke="#b5bbc0" y2="-300" x1="0.5" x2="0.5" style="stroke: #ccc; fill: none;"></line>
      </g>
      <g class="tick" opacity="1" transform="translate(152.37572475958717,0)">
        <line stroke="#b5bbc0" y2="-300" x1="0.5" x2="0.5" style="stroke: #ccc; fill: none;"></line>
      </g>
      <g class="tick" opacity="1" transform="translate(208.58185773194262,0)">
        <line stroke="#b5bbc0" y2="-300" x1="0.5" x2="0.5" style="stroke: #ccc; fill: none;"></line>
      </g>
      <g class="tick" opacity="1" transform="translate(264.86498540699995,0)">
        <line stroke="#b5bbc0" y2="-300" x1="0.5" x2="0.5" style="stroke: #ccc; fill: none;"></line>
      </g>
      <g class="tick" opacity="1" transform="translate(321.0711183793554,0)">
        <line stroke="#b5bbc0" y2="-300" x1="0.5" x2="0.5" style="stroke: #ccc; fill: none;"></line>
      </g>
      <g class="tick" opacity="1" transform="translate(377.3542460544127,0)">
        <line stroke="#b5bbc0" y2="-300" x1="0.5" x2="0.5" style="stroke: #ccc; fill: none;"></line>
      </g>
    </g><text x="205" y="360" class="axis-label x-axis-label"
      style="text-anchor: middle; font-weight: bold;">Year</text>
    <g fill="none" font-size="10" font-family="sans-serif" text-anchor="end">
      <path class="domain" stroke="#b5bbc0" d="M-6,300.5H0.5V0.5H-6"></path>
      <g class="tick" opacity="1" transform="translate(0,300)">
        <line stroke="#b5bbc0" x2="-6" y1="0.5" y2="0.5"></line><text fill="#b5bbc0" x="-9" y="0.5" dy="0.32em"
          style="font-size: 12px;">0.00%</text>
      </g>
      <g class="tick" opacity="1" transform="translate(0,266.6666666666667)">
        <line stroke="#b5bbc0" x2="-6" y1="0.5" y2="0.5"></line><text fill="#b5bbc0" x="-9" y="0.5" dy="0.32em"
          style="font-size: 12px;">2.00%</text>
      </g>
      <g class="tick" opacity="1" transform="translate(0,233.33333333333331)">
        <line stroke="#b5bbc0" x2="-6" y1="0.5" y2="0.5"></line><text fill="#b5bbc0" x="-9" y="0.5" dy="0.32em"
          style="font-size: 12px;">4.00%</text>
      </g>
      <g class="tick" opacity="1" transform="translate(0,200)">
        <line stroke="#b5bbc0" x2="-6" y1="0.5" y2="0.5"></line><text fill="#b5bbc0" x="-9" y="0.5" dy="0.32em"
          style="font-size: 12px;">6.00%</text>
      </g>
      <g class="tick" opacity="1" transform="translate(0,166.66666666666666)">
        <line stroke="#b5bbc0" x2="-6" y1="0.5" y2="0.5"></line><text fill="#b5bbc0" x="-9" y="0.5" dy="0.32em"
          style="font-size: 12px;">8.00%</text>
      </g>
      <g class="tick" opacity="1" transform="translate(0,133.33333333333331)">
        <line stroke="#b5bbc0" x2="-6" y1="0.5" y2="0.5"></line><text fill="#b5bbc0" x="-9" y="0.5" dy="0.32em"
          style="font-size: 12px;">10.00%</text>
      </g>
      <g class="tick" opacity="1" transform="translate(0,100)">
        <line stroke="#b5bbc0" x2="-6" y1="0.5" y2="0.5"></line><text fill="#b5bbc0" x="-9" y="0.5" dy="0.32em"
          style="font-size: 12px;">12.00%</text>
      </g>
      <g class="tick" opacity="1" transform="translate(0,66.66666666666663)">
        <line stroke="#b5bbc0" x2="-6" y1="0.5" y2="0.5"></line><text fill="#b5bbc0" x="-9" y="0.5" dy="0.32em"
          style="font-size: 12px;">14.00%</text>
      </g>
      <g class="tick" opacity="1" transform="translate(0,33.333333333333314)">
        <line stroke="#b5bbc0" x2="-6" y1="0.5" y2="0.5"></line><text fill="#b5bbc0" x="-9" y="0.5" dy="0.32em"
          style="font-size: 12px;">16.00%</text>
      </g>
      <g class="tick" opacity="1" transform="translate(0,0)">
        <line stroke="#b5bbc0" x2="-6" y1="0.5" y2="0.5"></line><text fill="#b5bbc0" x="-9" y="0.5" dy="0.32em"
          style="font-size: 12px;">18.00%</text>
      </g>
    </g>
    <g class="grid-lines" fill="none" font-size="10" font-family="sans-serif" text-anchor="end">
      <path class="domain" stroke="#b5bbc0" d="M410,300.5H0.5V0.5H410"></path>
      <g class="tick" opacity="1" transform="translate(0,300)">
        <line stroke="#b5bbc0" x2="410" y1="0.5" y2="0.5" style="stroke: #ccc; fill: none;"></line>
      </g>
      <g class="tick" opacity="1" transform="translate(0,266.6666666666667)">
        <line stroke="#b5bbc0" x2="410" y1="0.5" y2="0.5" style="stroke: #ccc; fill: none;"></line>
      </g>
      <g class="tick" opacity="1" transform="translate(0,233.33333333333331)">
        <line stroke="#b5bbc0" x2="410" y1="0.5" y2="0.5" style="stroke: #ccc; fill: none;"></line>
      </g>
      <g class="tick" opacity="1" transform="translate(0,200)">
        <line stroke="#b5bbc0" x2="410" y1="0.5" y2="0.5" style="stroke: #ccc; fill: none;"></line>
      </g>
      <g class="tick" opacity="1" transform="translate(0,166.66666666666666)">
        <line stroke="#b5bbc0" x2="410" y1="0.5" y2="0.5" style="stroke: #ccc; fill: none;"></line>
      </g>
      <g class="tick" opacity="1" transform="translate(0,133.33333333333331)">
        <line stroke="#b5bbc0" x2="410" y1="0.5" y2="0.5" style="stroke: #ccc; fill: none;"></line>
      </g>
      <g class="tick" opacity="1" transform="translate(0,100)">
        <line stroke="#b5bbc0" x2="410" y1="0.5" y2="0.5" style="stroke: #ccc; fill: none;"></line>
      </g>
      <g class="tick" opacity="1" transform="translate(0,66.66666666666663)">
        <line stroke="#b5bbc0" x2="410" y1="0.5" y2="0.5" style="stroke: #ccc; fill: none;"></line>
      </g>
      <g class="tick" opacity="1" transform="translate(0,33.333333333333314)">
        <line stroke="#b5bbc0" x2="410" y1="0.5" y2="0.5" style="stroke: #ccc; fill: none;"></line>
      </g>
      <g class="tick" opacity="1" transform="translate(0,0)">
        <line stroke="#b5bbc0" x2="410" y1="0.5" y2="0.5" style="stroke: #ccc; fill: none;"></line>
      </g>
    </g>
    <g class="lines">
      <path class="line"
        d="M2.3868357837575607,292.2666086662333L4.696676864813264,293.2711494733L7.086720761183402,294.5407579026L9.396561842239105,293.9801203976L11.783397625996667,293.61430395913334L14.170233409754228,292.5132457959L16.326085085406216,291.75284939055L18.7097127565512,294.69542222856666L21.019553837606903,293.5263653484L23.406389621364465,293.5007632131333L25.716230702420173,294.2218196583167L28.103066486177728,294.1260124899667L30.48990226993529,294.0277480016L32.799743350990994,292.85767289998336L35.18978724736113,294.43948230268336L37.49962832841683,294.65011769741665L39.886464112174394,294.01327556145L42.273299895931956,294.3346389927L44.42915157158395,292.8871208610167L46.81277924272893,293.0836741134833L49.12262032378463,294.04888966513334L51.5094561075422,294.0897275847L53.81929718859789,294.639877104L56.206132972355455,293.9310461293333L58.59296875611302,292.5355112077167L60.902809837168725,293.34028260366665L63.29285373353886,292.5734099140167L65.60269481459457,292.87893710291667L67.98953059835213,293.30065565371666L70.37636638210968,293.84538140415L72.53221805776167,293.8172498728667L74.91584572890666,293.3566813556L77.22568680996235,293.2366084848L79.61252259371992,293.38758557243335L81.92236367477562,293.24461482658336L84.30919945853319,292.8798283664L86.69603524229075,293.40732868895L89.00587632334646,292.5086216854L91.39592021971659,292.01721824618335L93.7057613007723,290.9876794L96.09259708452986,291.3189195726L98.47943286828742,291.86939163601664L100.71227924664126,291.31592514178334L103.09590691778625,291.5371935153167L105.40574799884195,291.52460105886666L107.79258378259951,291.6160429258667L110.10242486365522,292.05354001215L112.48926064741278,291.5270104686L114.87609643117034,290.8706369252333L117.18593751222603,291.00115507563333L119.57598140859618,290.8432380486167L121.88582248965187,291.51290781408335L124.27265827340943,290.98103355013336L126.659494057167,289.93546859275L128.815345732819,289.8510717268333L131.19897340396398,290.8351741317L133.50881448501968,289.9990119991833L135.89565026877725,290.34744939306665L138.20549134983295,290.3136145522167L140.59232713359052,289.25246453806665L142.97916291734808,289.32137002568334L145.28900399840376,289.10955099663335L147.6790478947739,287.25417404383336L149.9888889758296,288.28840338998333L152.37572475958717,288.2038600381L154.76256054334473,287.4075661772667L156.91841221899674,288.36838982626665L159.3020398901417,288.5739375144833L161.6118809711974,288.34272021003335L163.99871675495496,287.67194125556665L166.30855783601066,288.18276066631665L168.69539361976823,288.0620690222L171.0822294035258,287.56377357575L173.3920704845815,287.50659589658335L175.78211438095164,287.2128422903833L178.09195546200735,288.7053965744833L180.4787912457649,287.5480088942833L182.86562702952247,286.93549062166664L185.02147870517445,287.14957400926664L187.40510637631942,287.5304442876333L189.71494745737513,288.62880365615L192.1017832411327,287.71448279313336L194.4116243221884,289.0053633212167L196.79846010594596,289.10070651108333L199.18529588970353,289.26163087211665L201.49513697075923,288.09806974298334L203.88518086712935,288.23531628066667L206.19502194818506,288.4614261093167L208.58185773194262,288.44905616265L210.96869351570018,287.4941573988L213.201539894054,288.07886290693335L215.58516756519901,286.80693695356666L217.89500864625475,287.41374688673335L220.28184443001228,287.80984081623336L222.59168551106796,287.6476293718333L224.97852129482555,287.0032491877167L227.3653570785831,287.35463718895L229.6751981596388,287.7402272234167L232.06524205600894,287.6857700524167L234.37508313706468,287.8044227634333L236.7619189208222,288.33366665715L239.1487547045798,287.53630040496665L241.30460638023175,286.7315975023167L243.68823405137672,286.5445499774L245.99807513243246,287.063459415L248.38491091619002,286.73973037453334L250.6947519972457,287.48028871185L253.0815877810033,287.7118169620667L255.46842356476083,287.6824012047667L257.77826464581653,285.9174722308L260.16830854218665,287.1177929880167L262.4781496232424,287.32660971751665L264.86498540699995,286.8611758775L267.2518211907575,286.9830350324833L269.4076728664095,287.8610036202667L271.7913005375545,287.9443387112167L274.10114161861014,288.9897740641333L276.48797740236773,288.66287451835L278.79781848342344,289.06525349595L281.18465426718103,289.2386419144833L283.57149005093856,287.85197668703336L285.8813311319943,288.3649427829L288.2713750283644,288.03363226675L290.5812161094201,288.81345964536666L292.9680518931777,288.29797828901667L295.3548876769352,288.25917100743334L297.5107393525872,288.44312885755L299.89436702373223,287.9357188659L302.2042081047879,287.8901624327L304.59104388854547,288.39067072806665L306.9008849696012,288.2962415942333L309.2877207533587,288.22313641925L311.6745565371163,288.6794504837333L313.984397618172,287.3744918260667L316.3744415145421,288.53070085611665L318.68428259559784,288.8879554601833L321.0711183793554,288.86068615415L323.45795416311296,287.88043579305L325.6908005414668,287.4858014054L328.0744282126118,288.19868223225L330.3842692936675,289.11855805091665L332.77110507742503,289.10527967365L335.08094615848074,289.9020037672167L337.46778194223833,289.8354593691L339.85461772599587,289.39777960233334L342.1644588070516,288.24650722798333L344.5545027034217,288.2982280174L346.86434378447746,290.41148912213333L349.251179568235,290.81577135484997L351.6380153519925,289.50614914066665L353.7938670276445,289.3635318505667L356.17749469878953,289.1736370647333L358.4873357798452,289.86889902838334L360.8741715636028,288.6664838680333L363.1840126446585,289.8227530674333L365.57084842841607,289.57885334305L367.9576842121736,290.28231831306664L370.2675252932293,288.91960495L372.6575691895994,287.3671150213L374.96741027065514,287.99861131065L377.3542460544127,287.51918503651666L379.74108183817026,287.02450174676665L381.89693351382226,287.5917075761167L384.28056118496727,287.67342512135L386.5904022660229,289.6777657411167L388.9772380497805,289.51789744845L391.2870791308362,288.72279045371664L393.67391491459375,289.75284548075L396.06075069835134,290.2721672657167L398.37059177940705,289.3877948119333L400.76063567577717,289.55718053635L403.0704767568329,289.7881776273667L405.45731254059046,289.6561075094L407.844148324348,289.69694156959997L410,290.91225656315"
        data-legend="bash" style="stroke: rgb(31, 119, 180); fill: none;"></path>
      <path class="line"
        d="M2.3868357837575607,235.23284757969998L4.696676864813264,241.29657988769998L7.086720761183402,240.08148917473335L9.396561842239105,238.82122357553334L11.783397625996667,232.9501915708833L14.170233409754228,239.72203025416667L16.326085085406216,236.9917693437L18.7097127565512,239.11611483223334L21.019553837606903,234.93670223896666L23.406389621364465,237.86968135853334L25.716230702420173,239.77157968163334L28.103066486177728,241.67233454936667L30.48990226993529,240.53270446031667L32.799743350990994,234.37407242506666L35.18978724736113,232.1354139302L37.49962832841683,229.38155360583335L39.886464112174394,227.22388104380002L42.273299895931956,230.17723950596667L44.42915157158395,233.40928987075L46.81277924272893,239.29748930656666L49.12262032378463,235.11996015345L51.5094561075422,233.56974422995L53.81929718859789,228.5224848866667L56.206132972355455,234.29697766098332L58.59296875611302,238.33563854311666L60.902809837168725,229.71760692401665L63.29285373353886,237.23566885125L65.60269481459457,240.18307166445L67.98953059835213,239.20187497638332L70.37636638210968,239.08142317458334L72.53221805776167,237.7403710315L74.91584572890666,241.54230163823334L77.22568680996235,241.30044154093332L79.61252259371992,241.38458208188334L81.92236367477562,239.13497792021667L84.30919945853319,240.32171933408333L86.69603524229075,242.38792458771667L89.00587632334646,240.26698348266666L91.39592021971659,240.48222142395L93.7057613007723,241.65368828011668L96.09259708452986,239.4195913126L98.47943286828742,239.31756913718334L100.71227924664126,237.07173996828334L103.09590691778625,236.1914774866L105.40574799884195,236.62741349741668L107.79258378259951,232.5315454385L110.10242486365522,232.46099386246667L112.48926064741278,230.56888718245L114.87609643117034,233.46976659263333L117.18593751222603,231.42298152774998L119.57598140859618,227.58451872603334L121.88582248965187,228.80754496301665L124.27265827340943,230.12696830691664L126.659494057167,226.25921759781667L128.815345732819,226.4540997804L131.19897340396398,222.46126490265L133.50881448501968,221.4236890338L135.89565026877725,219.54439961136666L138.20549134983295,218.27884622698332L140.59232713359052,221.79935435906665L142.97916291734808,219.4847510379833L145.28900399840376,213.79608635871665L147.6790478947739,209.83684581263333L149.9888889758296,214.42929541818336L152.37572475958717,212.73698871550002L154.76256054334473,211.78151680778333L156.91841221899674,207.85242808853332L159.3020398901417,207.24319017048333L161.6118809711974,212.07434711601667L163.99871675495496,208.05667597476665L166.30855783601066,206.15387239656667L168.69539361976823,206.52045269621667L171.0822294035258,211.41969129849997L173.3920704845815,207.19185523171666L175.78211438095164,203.78946563565L178.09195546200735,202.49496277965L180.4787912457649,202.22356984031666L182.86562702952247,198.41372341508333L185.02147870517445,197.50592144801666L187.40510637631942,198.81972559903332L189.71494745737513,198.6896910795L192.1017832411327,194.55899013943332L194.4116243221884,194.21956976613333L196.79846010594596,196.160635971L199.18529588970353,196.42243251923333L201.49513697075923,187.5668526287L203.88518086712935,184.25585785173334L206.19502194818506,186.56169972445002L208.58185773194262,185.46473761266668L210.96869351570018,181.86349542761667L213.201539894054,182.83106164813336L215.58516756519901,183.42424926003332L217.89500864625475,183.75024187265L220.28184443001228,182.27736991841667L222.59168551106796,178.12137464103336L224.97852129482555,180.5576383682L227.3653570785831,179.04009041091666L229.6751981596388,170.41314570218333L232.06524205600894,163.86148124241666L234.37508313706468,164.77012996171666L236.7619189208222,164.16578573946666L239.1487547045798,158.18097253374998L241.30460638023175,157.0953805251L243.68823405137672,152.65905321876667L245.99807513243246,154.05344938331666L248.38491091619002,148.89526087031663L250.6947519972457,141.70103266549998L253.0815877810033,143.79299677946668L255.46842356476083,139.65311315366662L257.77826464581653,132.52381065483334L260.16830854218665,131.04681631149998L262.4781496232424,127.04413444451663L264.86498540699995,129.58388472284997L267.2518211907575,120.77740879873329L269.4076728664095,125.70895246113332L271.7913005375545,124.1407620256L274.10114161861014,123.5045699979L276.48797740236773,116.57448425909996L278.79781848342344,110.61230354434997L281.18465426718103,111.13763233058333L283.57149005093856,112.82915525596667L285.8813311319943,109.14294378531665L288.2713750283644,96.85397418878333L290.5812161094201,99.24315064114998L292.9680518931777,108.54632370916667L295.3548876769352,97.97000258599999L297.5107393525872,91.40949741781665L299.89436702373223,81.87339005198334L302.2042081047879,89.10561476418334L304.59104388854547,85.85578052519998L306.9008849696012,79.25100421828333L309.2877207533587,77.86738881655003L311.6745565371163,91.73154972886667L313.984397618172,74.00229715645L316.3744415145421,65.96030348129997L318.68428259559784,69.77829370930002L321.0711183793554,70.70716824618333L323.45795416311296,67.45077806906664L325.6908005414668,55.3198840790167L328.0744282126118,45.81564517556666L330.3842692936675,34.36639305033333L332.77110507742503,34.33945242018336L335.08094615848074,33.524535593666656L337.46778194223833,38.504415612749995L339.85461772599587,41.33438046621666L342.1644588070516,29.253718572183345L344.5545027034217,23.42400335335003L346.86434378447746,20.94040294366664L349.251179568235,24.55739962348332L351.6380153519925,26.020910917449953L353.7938670276445,29.516878038183336L356.17749469878953,19.466196041216733L358.4873357798452,18.164335005100043L360.8741715636028,27.055505503550023L363.1840126446585,20.682065519766695L365.57084842841607,26.58274610999996L367.9576842121736,32.79183939425002L370.2675252932293,20.12109288876667L372.6575691895994,17.05721456166674L374.96741027065514,14.705142939233326L377.3542460544127,22.30186706246667L379.74108183817026,15.245989525350012L381.89693351382226,17.304962233283277L384.28056118496727,12.137443955099968L386.5904022660229,27.512020829783296L388.9772380497805,26.822563220183326L391.2870791308362,20.61743658911672L393.67391491459375,33.256051690666595L396.06075069835134,34.11474071483332L398.37059177940705,18.270914621033285L400.76063567577717,21.0449651214833L403.0704767568329,29.949399378133307L405.45731254059046,47.259567401649974L407.844148324348,55.511208056816656L410,58.410409288199986"
        data-legend="python" style="stroke: rgb(255, 127, 14); fill: none;"></path>
      <path class="line"
        d="M2.3868357837575607,292.14577442665L4.696676864813264,292.45904682353336L7.086720761183402,293.20923543981667L9.396561842239105,292.86014279715L11.783397625996667,294.99787143466665L14.170233409754228,292.80119788068333L16.326085085406216,292.9899219819667L18.7097127565512,294.2995582157667L21.019553837606903,294.4418288345L23.406389621364465,295.46842205686664L25.716230702420173,294.48209805208336L28.103066486177728,295.05348420206667L30.48990226993529,293.7725235572167L32.799743350990994,293.78524784803335L35.18978724736113,294.0454298674333L37.49962832841683,295.4971823953333L39.886464112174394,295.62220775431666L42.273299895931956,295.38516951061666L44.42915157158395,294.56073948196666L46.81277924272893,295.2660099514667L49.12262032378463,295.5043242579L51.5094561075422,293.9691097803L53.81929718859789,294.88854259916667L56.206132972355455,294.6171017842833L58.59296875611302,293.74300204176666L60.902809837168725,294.44584833745L63.29285373353886,295.0328650723667L65.60269481459457,295.14802155148334L67.98953059835213,294.6657258183167L70.37636638210968,295.26256331766666L72.53221805776167,294.79784733926664L74.91584572890666,294.723907884L77.22568680996235,295.50777205535L79.61252259371992,295.63682117055L81.92236367477562,295.5075024708833L84.30919945853319,295.12830361911665L86.69603524229075,295.21129347556666L89.00587632334646,294.37321584741665L91.39592021971659,294.84189486676667L93.7057613007723,294.1153899481333L96.09259708452986,294.2701989882167L98.47943286828742,293.92230271795L100.71227924664126,294.3816288021L103.09590691778625,294.86001323936665L105.40574799884195,294.2875064405667L107.79258378259951,294.24002949105L110.10242486365522,293.32875201615L112.48926064741278,294.0274311554833L114.87609643117034,294.18003103985L117.18593751222603,293.35159964543334L119.57598140859618,293.43840944326666L121.88582248965187,293.18554642006666L124.27265827340943,293.27038158641665L126.659494057167,292.79695301246664L128.815345732819,293.6400049488167L131.19897340396398,293.25366984695L133.50881448501968,293.1747289550833L135.89565026877725,293.0310706057667L138.20549134983295,293.59310717193335L140.59232713359052,292.91057064483334L142.97916291734808,292.39122285511667L145.28900399840376,292.32387248341666L147.6790478947739,291.74710149066664L149.9888889758296,291.65485367096665L152.37572475958717,291.7480316079833L154.76256054334473,291.7836602007667L156.91841221899674,292.3129525537167L159.3020398901417,292.38550601381667L161.6118809711974,292.9216844483167L163.99871675495496,292.55352156376665L166.30855783601066,292.34295959775L168.69539361976823,292.3256158L171.0822294035258,291.7597361498L173.3920704845815,292.89971133253334L175.78211438095164,292.54501663035L178.09195546200735,292.6790237834667L180.4787912457649,292.5106124924333L182.86562702952247,292.0377246428L185.02147870517445,292.22257574151666L187.40510637631942,292.1026147155L189.71494745737513,292.95853580933334L192.1017832411327,292.16407375243335L194.4116243221884,292.8878443984167L196.79846010594596,293.4123115754667L199.18529588970353,293.48331161105L201.49513697075923,292.23356254235L203.88518086712935,292.87902250455L206.19502194818506,292.50236126935L208.58185773194262,293.05087796451664L210.96869351570018,292.5250384452167L213.201539894054,292.56387812096665L215.58516756519901,292.54899548155L217.89500864625475,292.65062230058334L220.28184443001228,292.49976732855L222.59168551106796,292.34514368308334L224.97852129482555,291.8261175447L227.3653570785831,292.93664761525L229.6751981596388,292.7036591149667L232.06524205600894,292.71904344753335L234.37508313706468,292.84443172345L236.7619189208222,293.61922992676665L239.1487547045798,293.0234033107167L241.30460638023175,292.4180557156167L243.68823405137672,291.9813809739333L245.99807513243246,292.53036568731665L248.38491091619002,292.0570607158L250.6947519972457,293.0518879762167L253.0815877810033,293.14898212093334L255.46842356476083,293.08303474061665L257.77826464581653,292.76575699278334L260.16830854218665,292.65724163355L262.4781496232424,292.78288652103333L264.86498540699995,292.5536160648667L267.2518211907575,292.9908650175L269.4076728664095,293.19008148521664L271.7913005375545,293.25173215908336L274.10114161861014,293.47430444531665L276.48797740236773,293.2938390696167L278.79781848342344,293.9568357485L281.18465426718103,293.5474512966L283.57149005093856,293.77384546966664L285.8813311319943,293.51385045635L288.2713750283644,293.576544113L290.5812161094201,293.90173742953334L292.9680518931777,293.86605825208335L295.3548876769352,294.26234807345L297.5107393525872,293.8699248436L299.89436702373223,294.1165971455667L302.2042081047879,293.9339097794833L304.59104388854547,293.74116546218335L306.9008849696012,293.67818021103335L309.2877207533587,294.03141154651667L311.6745565371163,293.8206607444L313.984397618172,293.9583457818L316.3744415145421,293.62816714228336L318.68428259559784,293.92847050918334L321.0711183793554,293.6313933224L323.45795416311296,293.64391023855L325.6908005414668,293.5971356629833L328.0744282126118,294.25134872203336L330.3842692936675,294.9611248069833L332.77110507742503,295.05766062603334L335.08094615848074,294.37759807743333L337.46778194223833,294.4464129960833L339.85461772599587,294.06228060781666L342.1644588070516,293.66571117545L344.5545027034217,293.62515406918334L346.86434378447746,293.93020871035L349.251179568235,294.36668544438334L351.6380153519925,293.6397025889167L353.7938670276445,294.85149680001666L356.17749469878953,294.75984259755L358.4873357798452,294.4316653468667L360.8741715636028,294.2026714716667L363.1840126446585,294.50428665641664L365.57084842841607,294.2104740794667L367.9576842121736,294.25645692203335L370.2675252932293,294.5304682597667L372.6575691895994,293.79635112653335L374.96741027065514,294.31355648135L377.3542460544127,294.0828568698L379.74108183817026,293.4607023559167L381.89693351382226,293.9042231542L384.28056118496727,294.63026888335L386.5904022660229,294.6666476614167L388.9772380497805,294.82075357418336L391.2870791308362,294.44257115383334L393.67391491459375,295.0109319285833L396.06075069835134,294.77824782383334L398.37059177940705,294.32906284883336L400.76063567577717,293.75382761053334L403.0704767568329,294.60926927811664L405.45731254059046,294.66031495755L407.844148324348,293.9666774957167L410,295.41366219075"
        data-legend="shell" style="stroke: rgb(44, 160, 44); fill: none;"></path>
      <path class="line"
        d="M2.3868357837575607,289.84992387443333L4.696676864813264,290.25476820271666L7.086720761183402,292.0108652233L9.396561842239105,290.62018759625L11.783397625996667,293.82716049383333L14.170233409754228,293.18513399371665L16.326085085406216,292.90745047586665L18.7097127565512,293.0327933748333L21.019553837606903,293.5917555974167L23.406389621364465,292.96412898303333L25.716230702420173,290.42175510926666L28.103066486177728,294.0229600775L30.48990226993529,293.0068502241L32.799743350990994,293.92438409025L35.18978724736113,291.72489885988335L37.49962832841683,293.40181182681664L39.886464112174394,294.2751947556333L42.273299895931956,294.89742319871664L44.42915157158395,294.6572944024L46.81277924272893,294.69524519383333L49.12262032378463,294.01654667418336L51.5094561075422,293.03432179625L53.81929718859789,293.34129062918333L56.206132972355455,294.51155476045L58.59296875611302,294.23697556478334L60.902809837168725,294.4984943247667L63.29285373353886,294.4782820464667L65.60269481459457,295.55838788793335L67.98953059835213,295.54777115545L70.37636638210968,295.97115427443333L72.53221805776167,294.9474300036333L74.91584572890666,295.1445929696667L77.22568680996235,294.9733806269833L79.61252259371992,294.6052168736667L81.92236367477562,294.82530840165L84.30919945853319,294.8004009781L86.69603524229075,294.2929114023833L89.00587632334646,293.7626850156L91.39592021971659,294.87259787351667L93.7057613007723,294.55068986976664L96.09259708452986,294.4429568076667L98.47943286828742,293.85477274815L100.71227924664126,294.08131497415L103.09590691778625,294.71723582935L105.40574799884195,293.37898349973335L107.79258378259951,293.71523217801666L110.10242486365522,292.1952302348167L112.48926064741278,292.3446835842167L114.87609643117034,292.20200237365L117.18593751222603,291.85179215803333L119.57598140859618,292.58846247995L121.88582248965187,291.6120271388833L124.27265827340943,292.23751293748336L126.659494057167,291.2510936133L128.815345732819,291.1752652253333L131.19897340396398,290.34560010026667L133.50881448501968,290.3115428742L135.89565026877725,288.04568732525L138.20549134983295,287.87063019491666L140.59232713359052,288.5129552173L142.97916291734808,289.24031780576667L145.28900399840376,287.62531756221665L147.6790478947739,287.94905477183335L149.9888889758296,288.10588500125L152.37572475958717,286.71157727183333L154.76256054334473,287.0860572286L156.91841221899674,288.0288987718667L159.3020398901417,288.92830102576664L161.6118809711974,287.04534700918333L163.99871675495496,285.71724066605L166.30855783601066,285.27346437486665L168.69539361976823,286.2128198173833L171.0822294035258,287.80643165233334L173.3920704845815,286.22621597295L175.78211438095164,287.4844813605333L178.09195546200735,286.65379556985L180.4787912457649,284.80897513645L182.86562702952247,284.79295094481665L185.02147870517445,284.56888323258335L187.40510637631942,284.67394322726665L189.71494745737513,283.74768598866666L192.1017832411327,281.1473154134667L194.4116243221884,280.83669185126666L196.79846010594596,280.8568436090333L199.18529588970353,283.91605749798333L201.49513697075923,283.4129798613333L203.88518086712935,283.47857866796664L206.19502194818506,284.7320811303L208.58185773194262,283.41117463358336L210.96869351570018,283.18579650265L213.201539894054,283.3604268267333L215.58516756519901,283.9188182296833L217.89500864625475,282.2833841931667L220.28184443001228,278.4482365329L222.59168551106796,279.4792795877L224.97852129482555,280.61595712183333L227.3653570785831,283.21472787455L229.6751981596388,282.58478636123334L232.06524205600894,282.1626169948L234.37508313706468,281.9140419212667L236.7619189208222,279.41011209205L239.1487547045798,281.72246983055L241.30460638023175,279.29995607816664L243.68823405137672,280.68370269863334L245.99807513243246,280.62225301493334L248.38491091619002,277.63510080261665L250.6947519972457,276.54309889543333L253.0815877810033,277.30244492143333L255.46842356476083,279.01023004623335L257.77826464581653,278.02017275096665L260.16830854218665,279.83481284435L262.4781496232424,280.12108069035L264.86498540699995,277.98643056695L267.2518211907575,279.48975257865L269.4076728664095,279.77483428225L271.7913005375545,279.26799434431666L274.10114161861014,278.69345318895L276.48797740236773,277.01993062291666L278.79781848342344,276.57745603915L281.18465426718103,276.0669102637167L283.57149005093856,280.2097230999833L285.8813311319943,278.4567175871667L288.2713750283644,279.30721504241666L290.5812161094201,280.8358582953L292.9680518931777,277.5239699052167L295.3548876769352,278.87343455615L297.5107393525872,278.9016248898L299.89436702373223,279.45216044283336L302.2042081047879,277.41135464845L304.59104388854547,275.73612853133335L306.9008849696012,275.16028330705L309.2877207533587,277.08752614341665L311.6745565371163,278.64420353261664L313.984397618172,281.10046629178333L316.3744415145421,281.30549752636665L318.68428259559784,283.61832609078334L321.0711183793554,280.07798669261666L323.45795416311296,280.6993325524833L325.6908005414668,282.34623407923334L328.0744282126118,284.13593349253335L330.3842692936675,284.05259213105L332.77110507742503,283.00580528753335L335.08094615848074,283.3865127305833L337.46778194223833,284.81565271115L339.85461772599587,285.22114732446664L342.1644588070516,286.04792667913335L344.5545027034217,285.82813115965L346.86434378447746,286.20159247196665L349.251179568235,284.59264395045L351.6380153519925,283.00508055951667L353.7938670276445,283.59268210991667L356.17749469878953,285.50305511065L358.4873357798452,284.75307012583335L360.8741715636028,284.2923733793L363.1840126446585,283.74354423303333L365.57084842841607,284.0236653764333L367.9576842121736,286.1817936706L370.2675252932293,286.51696826825L372.6575691895994,285.3650283394L374.96741027065514,286.4572858305833L377.3542460544127,285.87475333525L379.74108183817026,284.49126031708334L381.89693351382226,284.7605578855L384.28056118496727,287.369228531L386.5904022660229,285.80544310775L388.9772380497805,285.58710899163333L391.2870791308362,285.85041149951667L393.67391491459375,285.8153946988833L396.06075069835134,286.3359733664167L398.37059177940705,285.95706985366667L400.76063567577717,285.9827107900333L403.0704767568329,287.07891863053334L405.45731254059046,284.7217912267167L407.844148324348,284.80840333535L410,284.7405180297"
        data-legend="vba" style="stroke: rgb(214, 39, 40); fill: none;"></path>
      <path class="line"
        d="M2.3868357837575607,223.39109209986668L4.696676864813264,216.23741240893332L7.086720761183402,222.77169715853333L9.396561842239105,212.50174996501667L11.783397625996667,215.92166879523333L14.170233409754228,209.39107732473335L16.326085085406216,216.9511933627L18.7097127565512,217.10607572088333L21.019553837606903,206.4265536723167L23.406389621364465,207.40078229346665L25.716230702420173,208.74639514425L28.103066486177728,204.36736123993333L30.48990226993529,210.36517513501667L32.799743350990994,205.06270406649998L35.18978724736113,202.23121245556666L37.49962832841683,197.28225979029997L39.886464112174394,201.74288515218333L42.273299895931956,201.02501763391666L44.42915157158395,203.83129924301667L46.81277924272893,198.80676591259999L49.12262032378463,195.49979623916664L51.5094561075422,195.15297353043331L53.81929718859789,192.82517157919997L56.206132972355455,194.42658940625L58.59296875611302,190.17322004875L60.902809837168725,191.89146503255L63.29285373353886,190.48190853721667L65.60269481459457,180.36614332890002L67.98953059835213,186.23715258965L70.37636638210968,186.84814693343333L72.53221805776167,187.58031758063333L74.91584572890666,179.4036087769L77.22568680996235,177.82475969086667L79.61252259371992,170.17006250508334L81.92236367477562,165.10860196804998L84.30919945853319,160.96928020686667L86.69603524229075,165.73582083678332L89.00587632334646,167.46530699801667L91.39592021971659,166.64149020115002L93.7057613007723,165.6051797466333L96.09259708452986,161.73615849955L98.47943286828742,164.9805783807L100.71227924664126,165.99746735339997L103.09590691778625,161.49293251821666L105.40574799884195,156.65250366521667L107.79258378259951,156.3335355723L110.10242486365522,154.59040898883333L112.48926064741278,152.65293449846666L114.87609643117034,158.4314739864L117.18593751222603,161.01037777241666L119.57598140859618,160.336714989L121.88582248965187,154.62912026643335L124.27265827340943,153.27941120098333L126.659494057167,150.77523204336663L128.815345732819,152.46357984598333L131.19897340396398,150.28826118971665L133.50881448501968,148.56366858823333L135.89565026877725,145.4637255026833L138.20549134983295,140.57863557898332L140.59232713359052,134.40907289196667L142.97916291734808,121.1988028587167L145.28900399840376,120.96320375885L147.6790478947739,124.61400803396666L149.9888889758296,117.85678796028333L152.37572475958717,112.84286973083334L154.76256054334473,111.70292573143331L156.91841221899674,117.57205697629999L159.3020398901417,115.6013289496L161.6118809711974,112.18615015951667L163.99871675495496,111.60409556315L166.30855783601066,109.919657935L168.69539361976823,111.08892012066664L171.0822294035258,117.34924361456669L173.3920704845815,116.85717167955002L175.78211438095164,119.41032188225L178.09195546200735,116.95399878631665L180.4787912457649,112.88659793815L182.86562702952247,114.11724375724998L185.02147870517445,118.56506522431664L187.40510637631942,115.18526576073333L189.71494745737513,99.88321474026668L192.1017832411327,97.9724875894L194.4116243221884,94.15978642918333L196.79846010594596,94.9767025288667L199.18529588970353,97.9448820385L201.49513697075923,103.45146967666662L203.88518086712935,99.71779829926663L206.19502194818506,94.7983914157L208.58185773194262,91.22944720616667L210.96869351570018,99.58539831376666L213.201539894054,99.22470926598334L215.58516756519901,99.68589572696663L217.89500864625475,96.0192646006833L220.28184443001228,98.01380699766668L222.59168551106796,88.9351666952L224.97852129482555,90.32093828395003L227.3653570785831,99.47927396586667L229.6751981596388,103.81483422906663L232.06524205600894,103.06837567431666L234.37508313706468,94.81148707228334L236.7619189208222,96.38676990181665L239.1487547045798,96.55436844503333L241.30460638023175,102.20978605223331L243.68823405137672,100.06218905473332L245.99807513243246,98.13944760791668L248.38491091619002,96.39252664804997L250.6947519972457,97.78372081699999L253.0815877810033,97.70519367884995L255.46842356476083,102.95996261099998L257.77826464581653,103.61652772169998L260.16830854218665,106.80674696874999L262.4781496232424,103.64354178396664L264.86498540699995,101.67832461613332L267.2518211907575,110.67633201073332L269.4076728664095,113.60892557218332L271.7913005375545,113.99244525715L274.10114161861014,118.51728957398333L276.48797740236773,112.52239027673335L278.79781848342344,112.05970477241667L281.18465426718103,109.76179963183333L283.57149005093856,112.91107834188335L285.8813311319943,116.85051110016667L288.2713750283644,117.59191525103333L290.5812161094201,117.70413838071667L292.9680518931777,118.91291160786668L295.3548876769352,119.11965717241665L297.5107393525872,118.37553008356667L299.89436702373223,122.16478375741667L302.2042081047879,119.92760908908332L304.59104388854547,116.05496824545L306.9008849696012,119.5540040057L309.2877207533587,112.74170316878329L311.6745565371163,116.38711335875001L313.984397618172,123.41993037713331L316.3744415145421,120.95149669803334L318.68428259559784,118.05777244875L321.0711183793554,116.14959098371665L323.45795416311296,117.38152341645L325.6908005414668,110.55943542501666L328.0744282126118,107.71498481766668L330.3842692936675,106.25615185256666L332.77110507742503,105.89550482466666L335.08094615848074,98.4561736814833L337.46778194223833,95.35770097398333L339.85461772599587,100.5925820155L342.1644588070516,104.94431054891666L344.5545027034217,106.45917853063332L346.86434378447746,98.71667269876664L349.251179568235,96.91178807183331L351.6380153519925,104.62241332976666L353.7938670276445,110.32008979895L356.17749469878953,104.17383480651668L358.4873357798452,101.21170984326665L360.8741715636028,104.17042056746666L363.1840126446585,99.9288949681L365.57084842841607,98.12474498518336L367.9576842121736,97.4734027614L370.2675252932293,104.60910514505L372.6575691895994,109.7030708062L374.96741027065514,104.13194943256667L377.3542460544127,103.10389997358334L379.74108183817026,110.62547498278335L381.89693351382226,114.99994581533335L384.28056118496727,105.41998968378334L386.5904022660229,111.01640154323337L388.9772380497805,113.7819871001L391.2870791308362,111.29719131293331L393.67391491459375,110.54992247379997L396.06075069835134,112.14945343894999L398.37059177940705,120.1941687916833L400.76063567577717,125.04617531738333L403.0704767568329,124.67620881580001L405.45731254059046,128.54299285153334L407.844148324348,137.67268451911667L410,139.84621612976665"
        data-legend="javascript" style="stroke: rgb(148, 103, 189); fill: none;"></path>
      <path class="line"
        d="M2.3868357837575607,265.3205732376333L4.696676864813264,271.3443779293833L7.086720761183402,278.96194508801665L9.396561842239105,277.7404451911L11.783397625996667,278.07577692636664L14.170233409754228,272.5485679183L16.326085085406216,272.8668744948667L18.7097127565512,271.6561366839333L21.019553837606903,273.7785101485667L23.406389621364465,274.30118298035L25.716230702420173,274.02421630176667L28.103066486177728,275.0613161854167L30.48990226993529,275.6515880065L32.799743350990994,277.1352775304333L35.18978724736113,271.36552303893336L37.49962832841683,274.49889435766664L39.886464112174394,274.4067530251833L42.273299895931956,274.1869644170333L44.42915157158395,277.6636284051833L46.81277924272893,274.75205307441666L49.12262032378463,274.93418201341666L51.5094561075422,274.36871656626664L53.81929718859789,274.8295259883167L56.206132972355455,273.7715645763167L58.59296875611302,274.3408197765167L60.902809837168725,275.6512308632L63.29285373353886,277.6237805201667L65.60269481459457,275.3538806172L67.98953059835213,274.7777035739667L70.37636638210968,274.75391648345L72.53221805776167,272.7759550853167L74.91584572890666,274.1278672318L77.22568680996235,273.8649192067L79.61252259371992,273.6518115648L81.92236367477562,273.66065337553334L84.30919945853319,270.9884234753333L86.69603524229075,274.66249458811666L89.00587632334646,273.40065673316667L91.39592021971659,273.28838413146667L93.7057613007723,272.86630488406666L96.09259708452986,272.6034891321L98.47943286828742,272.4342663274L100.71227924664126,272.58385012338334L103.09590691778625,274.4688031359167L105.40574799884195,275.42009851875L107.79258378259951,275.8465236658L110.10242486365522,275.70012681275L112.48926064741278,275.6001602165333L114.87609643117034,275.21124331781664L117.18593751222603,274.76070235761665L119.57598140859618,275.8728388682L121.88582248965187,276.434380529L124.27265827340943,275.45605942509997L126.659494057167,275.73768191258335L128.815345732819,275.27527759736665L131.19897340396398,275.92274913443333L133.50881448501968,276.44928632063335L135.89565026877725,276.45201939845L138.20549134983295,276.8344245964L140.59232713359052,275.5764721658667L142.97916291734808,275.8261754091667L145.28900399840376,274.62233998963336L147.6790478947739,275.5078340663L149.9888889758296,275.24847850643334L152.37572475958717,275.51945652483334L154.76256054334473,276.8067016754333L156.91841221899674,276.19521058955L159.3020398901417,276.30085980688335L161.6118809711974,274.5199719157L163.99871675495496,275.912710725L166.30855783601066,275.80640575871666L168.69539361976823,274.74747474748335L171.0822294035258,277.0485902576833L173.3920704845815,277.3120557469667L175.78211438095164,278.74172758425L178.09195546200735,276.83850444766665L180.4787912457649,275.4800889428L182.86562702952247,277.4883854419L185.02147870517445,278.25856400466665L187.40510637631942,277.85548403986667L189.71494745737513,277.3751157005833L192.1017832411327,276.9747070239333L194.4116243221884,277.8045772046833L196.79846010594596,278.59926499163333L199.18529588970353,279.62826542756665L201.49513697075923,280.25054419121665L203.88518086712935,281.5853029053L206.19502194818506,280.25297227821665L208.58185773194262,280.1175320132833L210.96869351570018,279.95675583101666L213.201539894054,281.18461089576664L215.58516756519901,281.09051261545L217.89500864625475,281.11174427006665L220.28184443001228,280.76582667711665L222.59168551106796,281.93263726441666L224.97852129482555,282.63397113685L227.3653570785831,281.12515279405L229.6751981596388,282.5175832215L232.06524205600894,283.12316535265L234.37508313706468,283.13774780045003L236.7619189208222,282.6576383532L239.1487547045798,284.3939490035833L241.30460638023175,285.0615657216L243.68823405137672,285.98861751848335L245.99807513243246,286.29664912926665L248.38491091619002,286.63583937318333L250.6947519972457,285.76667078685L253.0815877810033,286.79138935226666L255.46842356476083,287.31889702446665L257.77826464581653,287.15451788868336L260.16830854218665,288.3133574438833L262.4781496232424,288.2070280552333L264.86498540699995,287.81691768018334L267.2518211907575,288.65554447885L269.4076728664095,289.6536001964167L271.7913005375545,289.7687552089167L274.10114161861014,289.60312911626664L276.48797740236773,289.18713465621664L278.79781848342344,290.06892588038335L281.18465426718103,290.63580535275L283.57149005093856,290.90653746226667L285.8813311319943,290.55507120023333L288.2713750283644,290.5849521797L290.5812161094201,289.6828136386333L292.9680518931777,289.644729337L295.3548876769352,290.9259669733L297.5107393525872,291.1512784985667L299.89436702373223,291.5494944019667L302.2042081047879,291.5208794155167L304.59104388854547,291.25256326028335L306.9008849696012,291.51869132736664L309.2877207533587,290.39353222051665L311.6745565371163,291.13882750746666L313.984397618172,290.6055596497333L316.3744415145421,292.21726129521664L318.68428259559784,291.51004157153335L321.0711183793554,291.25178757823335L323.45795416311296,292.4121999739833L325.6908005414668,292.3230412418L328.0744282126118,292.93394947083334L330.3842692936675,293.72398161443334L332.77110507742503,293.98878167413335L335.08094615848074,292.9263282670833L337.46778194223833,293.7195631632667L339.85461772599587,293.8956912862L342.1644588070516,294.1648483811333L344.5545027034217,293.74990643573335L346.86434378447746,293.70400530825L349.251179568235,293.70465061413336L351.6380153519925,293.21738907873333L353.7938670276445,294.36493495913334L356.17749469878953,293.5981095885L358.4873357798452,294.97215832675L360.8741715636028,294.52909762755L363.1840126446585,293.96150015335L365.57084842841607,293.8382902703L367.9576842121736,293.73686989541665L370.2675252932293,294.14887302206665L372.6575691895994,294.45901361983334L374.96741027065514,294.4183067567L377.3542460544127,293.7595925182667L379.74108183817026,294.02037197411664L381.89693351382226,293.97195400805L384.28056118496727,293.8631644381L386.5904022660229,294.07273314708334L388.9772380497805,294.11617828475L391.2870791308362,294.38012813308336L393.67391491459375,294.16719247531665L396.06075069835134,293.7179935748667L398.37059177940705,294.41867133655L400.76063567577717,294.3272067166L403.0704767568329,294.47033291931666L405.45731254059046,294.7861190554167L407.844148324348,294.7401803808833L410,295.54106046323335"
        data-legend="ruby" style="stroke: rgb(140, 86, 75); fill: none;"></path>
      <path class="line"
        d="M2.3868357837575607,284.29154885328336L4.696676864813264,285.15012297555L7.086720761183402,287.084232111L9.396561842239105,281.38037239256664L11.783397625996667,284.3550446998833L14.170233409754228,284.25861936575L16.326085085406216,288.70140366505L18.7097127565512,287.2531787880333L21.019553837606903,287.1835111948167L23.406389621364465,285.3319977103667L25.716230702420173,286.62169056023333L28.103066486177728,287.1699746491167L30.48990226993529,287.28982267006666L32.799743350990994,286.92119323241667L35.18978724736113,285.90167953905L37.49962832841683,288.36400599188335L39.886464112174394,288.73747464996666L42.273299895931956,286.9809253673167L44.42915157158395,287.4156753695L46.81277924272893,287.7789193073L49.12262032378463,290.7499045881833L51.5094561075422,287.6668295007167L53.81929718859789,287.98116773316667L56.206132972355455,285.56644449018336L58.59296875611302,287.37623218951666L60.902809837168725,286.8911491566167L63.29285373353886,288.8118902600833L65.60269481459457,287.93040186935L67.98953059835213,289.98248509975L70.37636638210968,290.2619357085333L72.53221805776167,289.9613411914167L74.91584572890666,290.35930012025L77.22568680996235,290.2974556288167L79.61252259371992,290.4111535027333L81.92236367477562,289.0516171327333L84.30919945853319,290.45959458743334L86.69603524229075,291.80016006088334L89.00587632334646,290.8420375229L91.39592021971659,290.69698895613334L93.7057613007723,291.3262460057333L96.09259708452986,291.89477897076665L98.47943286828742,291.72082570245L100.71227924664126,292.4045627681L103.09590691778625,292.2381008008667L105.40574799884195,292.00997632863334L107.79258378259951,290.5280484964L110.10242486365522,292.13619264203334L112.48926064741278,290.97004472316667L114.87609643117034,291.6060578396L117.18593751222603,292.35545885156665L119.57598140859618,292.78111712496667L121.88582248965187,293.17315650446665L124.27265827340943,292.9722339351667L126.659494057167,291.82119778888335L128.815345732819,291.78420092171666L131.19897340396398,291.8045307139167L133.50881448501968,290.9063597008667L135.89565026877725,291.227846866L138.20549134983295,290.96000730045L140.59232713359052,291.7766563529833L142.97916291734808,293.0700351969333L145.28900399840376,292.5879385545667L147.6790478947739,292.2040093666167L149.9888889758296,292.25310838956665L152.37572475958717,292.8050652340833L154.76256054334473,292.9178723252333L156.91841221899674,292.6686098488L159.3020398901417,292.9040867620167L161.6118809711974,292.4256299891667L163.99871675495496,293.01892646603335L166.30855783601066,293.0536997341L168.69539361976823,292.9728530216833L171.0822294035258,293.1347985837L173.3920704845815,293.81149703573334L175.78211438095164,293.40017666601665L178.09195546200735,293.89918648621665L180.4787912457649,294.0468971093667L182.86562702952247,294.3696050352833L185.02147870517445,294.3613674126L187.40510637631942,294.90605383665L189.71494745737513,295.21831250723335L192.1017832411327,294.82668039071666L194.4116243221884,295.04382393465L196.79846010594596,294.8926909967167L199.18529588970353,295.6177631703333L201.49513697075923,295.5131254595L203.88518086712935,295.6294529657667L206.19502194818506,295.3553588642667L208.58185773194262,295.87134939146665L210.96869351570018,295.53999907233333L213.201539894054,296.09853695136667L215.58516756519901,295.79599286345L217.89500864625475,295.70398694865L220.28184443001228,296.00352565683335L222.59168551106796,295.98714364505L224.97852129482555,295.7325483444L227.3653570785831,295.4480617965L229.6751981596388,296.1118183441667L232.06524205600894,296.3883381745L234.37508313706468,296.49480858336665L236.7619189208222,296.8953268002L239.1487547045798,296.13692580015L241.30460638023175,296.5764348495667L243.68823405137672,296.52306648576666L245.99807513243246,296.79743939493335L248.38491091619002,297.05327341656664L250.6947519972457,296.9005052832L253.0815877810033,296.62193578263333L255.46842356476083,296.9154073843333L257.77826464581653,296.70451036743333L260.16830854218665,297.3697581971L262.4781496232424,297.25448492053334L264.86498540699995,297.4268489928L267.2518211907575,297.45822577558334L269.4076728664095,297.19419666343333L271.7913005375545,297.37740128456664L274.10114161861014,297.57674479403335L276.48797740236773,297.4005434830167L278.79781848342344,297.40101677296667L281.18465426718103,297.57896106501664L283.57149005093856,297.60082391218333L285.8813311319943,297.0833385980667L288.2713750283644,297.3470788516L290.5812161094201,297.1873841394167L292.9680518931777,296.98961530453334L295.3548876769352,297.09076803725L297.5107393525872,297.5752613679333L299.89436702373223,297.71935507328334L302.2042081047879,297.51994101481665L304.59104388854547,297.06344940175L306.9008849696012,297.34819240711664L309.2877207533587,297.6322954895333L311.6745565371163,297.54062297626666L313.984397618172,297.68735213993335L316.3744415145421,297.4740234028333L318.68428259559784,298.00161398311667L321.0711183793554,298.10321281263333L323.45795416311296,297.90841653188335L325.6908005414668,297.86211275088334L328.0744282126118,297.9732319212333L330.3842692936675,298.06752815178334L332.77110507742503,298.05836667451666L335.08094615848074,298.2138217719L337.46778194223833,297.8194505015333L339.85461772599587,298.02472661503333L342.1644588070516,297.96779851971667L344.5545027034217,298.1287145017167L346.86434378447746,298.35374190695L349.251179568235,298.25463544751665L351.6380153519925,298.2979485801333L353.7938670276445,298.28006046946666L356.17749469878953,298.31919479545L358.4873357798452,298.49164749803333L360.8741715636028,297.98921487981664L363.1840126446585,298.12738656441667L365.57084842841607,298.37341890805L367.9576842121736,298.41315313495L370.2675252932293,298.2050890671667L372.6575691895994,298.9002622451667L374.96741027065514,298.45867451995L377.3542460544127,298.20096360888334L379.74108183817026,298.5860978067L381.89693351382226,298.60474441085L384.28056118496727,298.6774061289L386.5904022660229,298.88344071308336L388.9772380497805,298.46723972125L391.2870791308362,298.37648146068335L393.67391491459375,298.5693113618833L396.06075069835134,298.9132393948167L398.37059177940705,298.95030057248334L400.76063567577717,298.6580489007L403.0704767568329,298.66621095541666L405.45731254059046,298.95163251785L407.844148324348,298.77786544145L410,298.61277436635"
        data-legend="perl" style="stroke: rgb(227, 119, 194); fill: none;"></path>
      <path class="line"
        d="M2.3868357837575607,296.61664129148335L4.696676864813264,296.5195600724L7.086720761183402,296.27173710421664L9.396561842239105,295.66008679826666L11.783397625996667,296.59429544488336L14.170233409754228,295.0088305306L16.326085085406216,295.2991241526167L18.7097127565512,295.4079774516L21.019553837606903,296.40353630466666L23.406389621364465,295.46842205686664L25.716230702420173,296.66843655975L28.103066486177728,296.13553453286664L30.48990226993529,296.37581288986667L32.799743350990994,297.54192638766665L35.18978724736113,297.15406574546665L37.49962832841683,297.5033882588L39.886464112174394,296.48279939235L42.273299895931956,296.73585160506667L44.42915157158395,297.19990730728335L46.81277924272893,297.6497921744833L49.12262032378463,297.54193268778334L51.5094561075422,297.67810726541666L53.81929718859789,297.3751975509333L56.206132972355455,296.78081577295L58.59296875611302,297.1733737294L60.902809837168725,297.44666961485L63.29285373353886,296.81717567745L65.60269481459457,297.24813162621666L67.98953059835213,296.99684563786667L70.37636638210968,297.30735436431667L72.53221805776167,296.92524523248335L74.91584572890666,297.0727329456167L77.22568680996235,297.02744767975L79.61252259371992,296.93901020105L81.92236367477562,296.97172388778336L84.30919945853319,297.1113338767167L86.69603524229075,297.01525826216664L89.00587632334646,297.62388000595L91.39592021971659,297.11391736593333L93.7057613007723,296.69494503936664L96.09259708452986,296.3001033667667L98.47943286828742,296.33987563681666L100.71227924664126,296.17099869365L103.09590691778625,296.17096945861664L105.40574799884195,295.6440680919333L107.79258378259951,295.6864220855333L110.10242486365522,295.46591287468334L112.48926064741278,296.06568877703336L114.87609643117034,296.2468174026L117.18593751222603,296.03782201091667L119.57598140859618,295.784263062L121.88582248965187,296.23346565763336L124.27265827340943,295.81528475231664L126.659494057167,295.7242186832L128.815345732819,296.20140113205L131.19897340396398,296.04424182608335L133.50881448501968,295.30195523348334L135.89565026877725,295.3964758643833L138.20549134983295,295.0189735283167L140.59232713359052,295.1981194771L142.97916291734808,294.88357861761665L145.28900399840376,294.88258165561666L147.6790478947739,295.2976564433667L149.9888889758296,295.2241021616333L152.37572475958717,294.95466302835L154.76256054334473,295.0523345122L156.91841221899674,294.9561329059L159.3020398901417,294.83147854286665L161.6118809711974,294.2381366668333L163.99871675495496,293.7222049850167L166.30855783601066,293.5180499565167L168.69539361976823,293.5379013898167L171.0822294035258,293.5493394645L173.3920704845815,293.92789521061667L175.78211438095164,294.9897682617L178.09195546200735,293.95317598635L180.4787912457649,293.0665049525L182.86562702952247,293.3332137497333L185.02147870517445,293.72503270055L187.40510637631942,293.40263222593336L189.71494745737513,293.753977207L192.1017832411327,293.17371989378336L194.4116243221884,292.7160532003L196.79846010594596,292.49632680856666L199.18529588970353,293.27553314066665L201.49513697075923,293.87334400093334L203.88518086712935,293.1898588238L206.19502194818506,293.08659285875L208.58185773194262,292.82820916765L210.96869351570018,292.1949983765667L213.201539894054,292.10537284816667L215.58516756519901,292.03631168441666L217.89500864625475,292.37546443985L220.28184443001228,292.08004627881667L222.59168551106796,291.98379642838336L224.97852129482555,291.15036055801664L227.3653570785831,291.53378734993333L229.6751981596388,291.70521246753333L232.06524205600894,291.5855963852667L234.37508313706468,291.54813312261666L236.7619189208222,291.1621572717L239.1487547045798,291.17835294661666L241.30460638023175,291.3659356937667L243.68823405137672,291.84946479723334L245.99807513243246,290.3832968873L248.38491091619002,289.99812996198335L250.6947519972457,290.46741504015L253.0815877810033,290.397188236L255.46842356476083,290.00882795866664L257.77826464581653,290.10363473705L260.16830854218665,290.58492991005L262.4781496232424,291.2421544300167L264.86498540699995,290.03297834353333L267.2518211907575,290.07497683795L269.4076728664095,290.30633916706665L271.7913005375545,290.86755150868333L274.10114161861014,291.19181925131664L276.48797740236773,289.62401810446664L278.79781848342344,288.8645190190667L281.18465426718103,289.49461078866665L283.57149005093856,290.19263628491666L285.8813311319943,289.1862409394L288.2713750283644,289.39960443253335L290.5812161094201,289.6188905509L292.9680518931777,289.03359860935L295.3548876769352,289.9446784144333L297.5107393525872,289.32485199648335L299.89436702373223,289.42309599201667L302.2042081047879,287.5885336372L304.59104388854547,287.68141910053333L306.9008849696012,288.2962415942333L309.2877207533587,288.1861410362667L311.6745565371163,288.8895480184167L313.984397618172,288.61380551185L316.3744415145421,289.2702885985167L318.68428259559784,289.4734698345667L321.0711183793554,288.26291079813336L323.45795416311296,288.62410991505L325.6908005414668,288.1444434367L328.0744282126118,289.41474307951665L330.3842692936675,289.47976774218336L332.77110507742503,289.7328783243167L335.08094615848074,289.9831936866833L337.46778194223833,289.1767517081L339.85461772599587,287.49390164091665L342.1644588070516,288.70999177613334L344.5545027034217,288.4604060939167L346.86434378447746,289.01656814253334L349.251179568235,289.22688776223333L351.6380153519925,287.5225553806667L353.7938670276445,287.869900153L356.17749469878953,287.85123885231667L358.4873357798452,288.72506504771667L360.8741715636028,288.0136315562833L363.1840126446585,287.6787463803L365.57084842841607,287.26304297483335L367.9576842121736,287.05245301248334L370.2675252932293,287.1246940171667L372.6575691895994,287.8746862927667L374.96741027065514,287.7142891347167L377.3542460544127,287.1959206849833L379.74108183817026,287.58417136495L381.89693351382226,286.58929093925L384.28056118496727,287.369228531L386.5904022660229,287.9791702301667L388.9772380497805,288.55374178923336L391.2870791308362,288.13582605873336L393.67391491459375,287.2583114450333L396.06075069835134,287.3697212591667L398.37059177940705,286.36670865465L400.76063567577717,286.8854778932L403.0704767568329,287.4818340711L405.45731254059046,286.9303520557833L407.844148324348,286.71122043286664L410,287.43003711536664"
        data-legend="powershell" style="stroke: rgb(127, 127, 127); fill: none;"></path>
    </g>
  </g>
  <g transform="translate(20, 150)"><text transform="rotate(-90)" x="-50" y="0" dy="1em" class="axis-label y-axis-label"
      style="text-anchor: middle; font-weight: bold;">% of Stack Overflow questions that month</text></g>
  <g class="legend" transform="translate(530, 30)" style="font-size: 12px;"><text class="legend-title"
      style="font-weight: bold;">Tag</text>
    <g class="legend-items" transform="translate(0,20)"><text y="0em" x="1em">python</text><text y="1em"
        x="1em">javascript</text><text y="2em" x="1em">ruby</text><text y="3em" x="1em">vba</text><text y="4em"
        x="1em">perl</text><text y="5em" x="1em">bash</text><text y="6em" x="1em">powershell</text><text y="7em"
        x="1em">shell</text>
      <circle cy="-0.25em" cx="0" r="0.4em" style="fill: rgb(255, 127, 14);"></circle>
      <circle cy="0.75em" cx="0" r="0.4em" style="fill: rgb(148, 103, 189);"></circle>
      <circle cy="1.75em" cx="0" r="0.4em" style="fill: rgb(140, 86, 75);"></circle>
      <circle cy="2.75em" cx="0" r="0.4em" style="fill: rgb(214, 39, 40);"></circle>
      <circle cy="3.75em" cx="0" r="0.4em" style="fill: rgb(227, 119, 194);"></circle>
      <circle cy="4.75em" cx="0" r="0.4em" style="fill: rgb(31, 119, 180);"></circle>
      <circle cy="5.75em" cx="0" r="0.4em" style="fill: rgb(127, 127, 127);"></circle>
      <circle cy="6.75em" cx="0" r="0.4em" style="fill: rgb(44, 160, 44);"></circle>
    </g>
    <rect class="legend-box"></rect>
  </g>
</svg>
