<?xml version="1.0" encoding="UTF-8" standalone="no"?>
<svg xmlns="http://www.w3.org/2000/svg"
  xmlns:xlink="http://www.w3.org/1999/xlink" contentStyleType="text/css" height="400px" preserveAspectRatio="none"
  style="width:437px;height:400px;" version="1.1" viewBox="0 0 437 400" width="437px" zoomAndPan="magnify">
  <defs />
  <g>
    <rect fill="none" height="21.1992" style="stroke:none;stroke-width:1.0;" width="404.5" x="15" y="12.2969" />
    <rect fill="#4682B4" height="376.3052" style="stroke:#4682B4;stroke-width:1.0;" width="118" x="15" y="12.2969" />
    <ellipse cx="69" cy="48.4961" fill="#DDDDDD" rx="10" ry="10" style="stroke:#DDDDDD;stroke-width:1.0;" />
    <polygon fill="#2E2E2E" points="30,78.4961,118,78.4961,108,95.1804,118,111.8647,30,111.8647"
      style="stroke:#1B1B1B;stroke-width:0.5;" /><text fill="#FFFFFF" font-family="Verdana" font-size="11"
      lengthAdjust="spacing" textLength="58" x="40" y="99.5552">waldo.key</text>
    <ellipse cx="69" cy="377.6021" fill="none" rx="11" ry="11" style="stroke:#DDDDDD;stroke-width:1.0;" />
    <ellipse cx="69" cy="377.6021" fill="#DDDDDD" rx="6" ry="6" style="stroke:#6E6E6E;stroke-width:1.0;" />
    <line style="stroke:#FFFFFF;stroke-width:1.5;" x1="15" x2="15" y1="12.2969" y2="388.6021" />
    <rect fill="#4169E1" height="376.3052" style="stroke:#4169E1;stroke-width:1.0;" width="284.5" x="133" y="12.2969" />
    <polygon fill="#2E2E2E"
      points="214.25,131.8647,275.25,131.8647,287.25,143.8647,275.25,155.8647,214.25,155.8647,202.25,143.8647,214.25,131.8647"
      style="stroke:#1B1B1B;stroke-width:0.5;" /><text fill="#FFFFFF" font-family="Verdana" font-size="11"
      lengthAdjust="spacing" textLength="61" x="214.25" y="148.2395">is key set?</text><text fill="#BBBBBB"
      font-family="Verdana" font-size="11" lengthAdjust="spacing" textLength="20" x="182.25"
      y="141.5552">yes</text><text fill="#BBBBBB" font-family="Verdana" font-size="11" lengthAdjust="spacing"
      textLength="14" x="287.25" y="141.5552">no</text>
    <polygon fill="#2E2E2E" points="158,165.8647,199,165.8647,189,199.2334,148,199.2334"
      style="stroke:#1B1B1B;stroke-width:0.5;" /><text fill="#FFFFFF" font-family="Verdana" font-size="11"
      lengthAdjust="spacing" textLength="31" x="158" y="186.9238">value</text>
    <polygon fill="#2E2E2E"
      points="267.5,165.8647,364.5,165.8647,376.5,177.8647,364.5,189.8647,267.5,189.8647,255.5,177.8647,267.5,165.8647"
      style="stroke:#1B1B1B;stroke-width:0.5;" /><text fill="#FFFFFF" font-family="Verdana" font-size="11"
      lengthAdjust="spacing" textLength="97" x="267.5" y="182.2395">is metatable set?</text><text fill="#BBBBBB"
      font-family="Verdana" font-size="11" lengthAdjust="spacing" textLength="14" x="241.5" y="175.5552">no</text><text
      fill="#BBBBBB" font-family="Verdana" font-size="11" lengthAdjust="spacing" textLength="20" x="376.5"
      y="175.5552">yes</text>
    <polygon fill="#2E2E2E" points="239,199.8647,262,199.8647,252,233.2334,229,233.2334"
      style="stroke:#1B1B1B;stroke-width:0.5;" /><text fill="#FFFFFF" font-family="Verdana" font-size="11"
      lengthAdjust="spacing" textLength="13" x="239" y="220.9238">nil</text>
    <rect fill="#2E2E2E" height="33.3687" style="stroke:#1B1B1B;stroke-width:0.5;" width="54" x="359.5" y="199.8647" />
    <line style="stroke:#1B1B1B;stroke-width:0.5;" x1="364.5" x2="364.5" y1="199.8647" y2="233.2334" />
    <line style="stroke:#1B1B1B;stroke-width:0.5;" x1="408.5" x2="408.5" y1="199.8647" y2="233.2334" /><text
      fill="#FFFFFF" font-family="Verdana" font-size="11" lengthAdjust="spacing" textLength="34" x="369.5"
      y="220.9238">magic</text>
    <polygon fill="#2E2E2E" points="316,239.2334,328,251.2334,316,263.2334,304,251.2334,316,239.2334"
      style="stroke:#1B1B1B;stroke-width:0.5;" />
    <polygon fill="#2E2E2E" points="244.75,269.2334,256.75,281.2334,244.75,293.2334,232.75,281.2334,244.75,269.2334"
      style="stroke:#1B1B1B;stroke-width:0.5;" />
    <polygon fill="#2E2E2E" points="217.25,313.2334,272.25,313.2334,282.25,329.9177,272.25,346.6021,217.25,346.6021"
      style="stroke:#1B1B1B;stroke-width:0.5;" /><text fill="#FFFFFF" font-family="Verdana" font-size="11"
      lengthAdjust="spacing" textLength="35" x="227.25" y="334.2925">return</text>
    <line style="stroke:#FFFFFF;stroke-width:1.5;" x1="133" x2="133" y1="12.2969" y2="388.6021" />
    <line style="stroke:#FFFFFF;stroke-width:1.5;" x1="417.5" x2="417.5" y1="12.2969" y2="388.6021" />
    <line style="stroke:#FFFFFF;stroke-width:1.0;" x1="69" x2="69" y1="58.4961" y2="78.4961" />
    <polygon fill="#FFFFFF" points="65,68.4961,69,78.4961,73,68.4961,69,72.4961"
      style="stroke:#FFFFFF;stroke-width:1.0;" />
    <line style="stroke:#FFFFFF;stroke-width:1.0;" x1="255.5" x2="245.5" y1="177.8647" y2="177.8647" />
    <line style="stroke:#FFFFFF;stroke-width:1.0;" x1="245.5" x2="245.5" y1="177.8647" y2="199.8647" />
    <polygon fill="#FFFFFF" points="241.5,189.8647,245.5,199.8647,249.5,189.8647,245.5,193.8647"
      style="stroke:#FFFFFF;stroke-width:1.0;" />
    <line style="stroke:#FFFFFF;stroke-width:1.0;" x1="376.5" x2="386.5" y1="177.8647" y2="177.8647" />
    <line style="stroke:#FFFFFF;stroke-width:1.0;" x1="386.5" x2="386.5" y1="177.8647" y2="199.8647" />
    <polygon fill="#FFFFFF" points="382.5,189.8647,386.5,199.8647,390.5,189.8647,386.5,193.8647"
      style="stroke:#FFFFFF;stroke-width:1.0;" />
    <line style="stroke:#FFFFFF;stroke-width:1.0;" x1="245.5" x2="245.5" y1="233.2334" y2="251.2334" />
    <line style="stroke:#FFFFFF;stroke-width:1.0;" x1="245.5" x2="304" y1="251.2334" y2="251.2334" />
    <polygon fill="#FFFFFF" points="294,247.2334,304,251.2334,294,255.2334,298,251.2334"
      style="stroke:#FFFFFF;stroke-width:1.0;" />
    <line style="stroke:#FFFFFF;stroke-width:1.0;" x1="386.5" x2="386.5" y1="233.2334" y2="251.2334" />
    <line style="stroke:#FFFFFF;stroke-width:1.0;" x1="386.5" x2="328" y1="251.2334" y2="251.2334" />
    <polygon fill="#FFFFFF" points="338,247.2334,328,251.2334,338,255.2334,334,251.2334"
      style="stroke:#FFFFFF;stroke-width:1.0;" />
    <line style="stroke:#FFFFFF;stroke-width:1.0;" x1="202.25" x2="173.5" y1="143.8647" y2="143.8647" />
    <line style="stroke:#FFFFFF;stroke-width:1.0;" x1="173.5" x2="173.5" y1="143.8647" y2="165.8647" />
    <polygon fill="#FFFFFF" points="169.5,155.8647,173.5,165.8647,177.5,155.8647,173.5,159.8647"
      style="stroke:#FFFFFF;stroke-width:1.0;" />
    <line style="stroke:#FFFFFF;stroke-width:1.0;" x1="287.25" x2="316" y1="143.8647" y2="143.8647" />
    <line style="stroke:#FFFFFF;stroke-width:1.0;" x1="316" x2="316" y1="143.8647" y2="165.8647" />
    <polygon fill="#FFFFFF" points="312,155.8647,316,165.8647,320,155.8647,316,159.8647"
      style="stroke:#FFFFFF;stroke-width:1.0;" />
    <line style="stroke:#FFFFFF;stroke-width:1.0;" x1="173.5" x2="173.5" y1="199.2334" y2="281.2334" />
    <line style="stroke:#FFFFFF;stroke-width:1.0;" x1="173.5" x2="232.75" y1="281.2334" y2="281.2334" />
    <polygon fill="#FFFFFF" points="222.75,277.2334,232.75,281.2334,222.75,285.2334,226.75,281.2334"
      style="stroke:#FFFFFF;stroke-width:1.0;" />
    <line style="stroke:#FFFFFF;stroke-width:1.0;" x1="316" x2="316" y1="263.2334" y2="281.2334" />
    <line style="stroke:#FFFFFF;stroke-width:1.0;" x1="316" x2="256.75" y1="281.2334" y2="281.2334" />
    <polygon fill="#FFFFFF" points="266.75,277.2334,256.75,281.2334,266.75,285.2334,262.75,281.2334"
      style="stroke:#FFFFFF;stroke-width:1.0;" />
    <line style="stroke:#FFFFFF;stroke-width:1.0;" x1="244.75" x2="244.75" y1="293.2334" y2="313.2334" />
    <polygon fill="#FFFFFF" points="240.75,303.2334,244.75,313.2334,248.75,303.2334,244.75,307.2334"
      style="stroke:#FFFFFF;stroke-width:1.0;" />
    <line style="stroke:#FFFFFF;stroke-width:1.0;" x1="69" x2="69" y1="111.8647" y2="116.8647" />
    <line style="stroke:#FFFFFF;stroke-width:1.0;" x1="69" x2="244.75" y1="116.8647" y2="116.8647" />
    <line style="stroke:#FFFFFF;stroke-width:1.0;" x1="244.75" x2="244.75" y1="116.8647" y2="131.8647" />
    <polygon fill="#FFFFFF" points="240.75,121.8647,244.75,131.8647,248.75,121.8647,244.75,125.8647"
      style="stroke:#FFFFFF;stroke-width:1.0;" />
    <line style="stroke:#FFFFFF;stroke-width:1.0;" x1="244.75" x2="244.75" y1="346.6021" y2="351.6021" />
    <line style="stroke:#FFFFFF;stroke-width:1.0;" x1="244.75" x2="69" y1="351.6021" y2="351.6021" />
    <line style="stroke:#FFFFFF;stroke-width:1.0;" x1="69" x2="69" y1="351.6021" y2="366.6021" />
    <polygon fill="#FFFFFF" points="65,356.6021,69,366.6021,73,356.6021,69,360.6021"
      style="stroke:#FFFFFF;stroke-width:1.0;" /><text fill="#FFFFFF" font-family="sans-serif" font-size="18"
      lengthAdjust="spacing" textLength="41" x="56.5" y="29.6992">code</text><text fill="#FFFFFF"
      font-family="sans-serif" font-size="18" lengthAdjust="spacing" textLength="43" x="256.75" y="29.6992">table</text>
    <!--SRC=[LOun3i8m34NtdCA8fGp0NY6Gu0Pm0jEu43LrAiS5LShXSIaBYsNvlsVzbJwf9n3oNYZdhKVfxd4abxl00mhsSCQcUqWQsLzIJ08goDaYOdLbVLEYU3QZD0MQvCrK57Nr6wDFkuwcWr7NDE52QG75UoGNMgX21WCWavusO4qOgedonW7KBpHwxoXcWehJVFiPFIb-N_nv2s8YXxYtRH5_t-pSuoCqPGxOXzOjinRIKVZehBprJiC7]-->
  </g>
</svg>
