<?xml version="1.0" encoding="UTF-8" standalone="no"?><svg xmlns="http://www.w3.org/2000/svg" xmlns:xlink="http://www.w3.org/1999/xlink" contentStyleType="text/css" height="581px" preserveAspectRatio="none" style="width:696px;height:581px;" version="1.1" viewBox="0 0 696 581" width="696px" zoomAndPan="magnify"><defs/><g><rect fill="none" height="21.1992" style="stroke:none;stroke-width:1.0;" width="663" x="15" y="12.2969"/><rect fill="#4682B4" height="556.8052" style="stroke:#4682B4;stroke-width:1.0;" width="118" x="15" y="12.2969"/><line style="stroke:none;stroke-width:1.5;" x1="69" x2="128" y1="38.4961" y2="38.4961"/><ellipse cx="69" cy="53.4961" fill="#DDDDDD" rx="10" ry="10" style="stroke:#DDDDDD;stroke-width:1.0;"/><polygon fill="#2E2E2E" points="30,94.3118,118,94.3118,108,110.9961,118,127.6804,30,127.6804" style="stroke:#1B1B1B;stroke-width:0.5;"/><text fill="#FFFFFF" font-family="Verdana" font-size="11" lengthAdjust="spacing" textLength="58" x="40" y="115.3708">waldo.key</text><ellipse cx="98" cy="558.1021" fill="none" rx="11" ry="11" style="stroke:#DDDDDD;stroke-width:1.0;"/><ellipse cx="98" cy="558.1021" fill="#DDDDDD" rx="6" ry="6" style="stroke:#6E6E6E;stroke-width:1.0;"/><line style="stroke:#FFFFFF;stroke-width:1.5;" x1="15" x2="15" y1="12.2969" y2="569.1021"/><rect fill="#4169E1" height="556.8052" style="stroke:#4169E1;stroke-width:1.0;" width="268.5" x="133" y="12.2969"/><ellipse cx="302.75" cy="83.4961" fill="#303030" rx="10" ry="10" style="stroke:#E7E7E7;stroke-width:0.5;"/><path d="M306.1299,86.7461 L304.9966,86.7461 L304.2124,84.5171 L300.7534,84.5171 L299.9692,86.7461 L298.8896,86.7461 L301.8008,78.7485 L303.2188,78.7485 Z M303.8848,83.604 L302.4829,79.6777 L301.0757,83.604 Z " fill="#FFFFFF"/><line style="stroke:#FFFFFF;stroke-width:1.5;" x1="215.75" x2="302.75" y1="147.6804" y2="147.6804"/><polygon fill="#2E2E2E" points="214.25,167.6804,275.25,167.6804,287.25,179.6804,275.25,191.6804,214.25,191.6804,202.25,179.6804,214.25,167.6804" style="stroke:#1B1B1B;stroke-width:0.5;"/><text fill="#FFFFFF" font-family="Verdana" font-size="11" lengthAdjust="spacing" textLength="61" x="214.25" y="184.0552">is key set?</text><text fill="#BBBBBB" font-family="Verdana" font-size="11" lengthAdjust="spacing" textLength="20" x="182.25" y="177.3708">yes</text><text fill="#BBBBBB" font-family="Verdana" font-size="11" lengthAdjust="spacing" textLength="14" x="287.25" y="177.3708">no</text><polygon fill="#2E2E2E" points="158,211.6804,199,211.6804,189,245.0491,148,245.0491" style="stroke:#1B1B1B;stroke-width:0.5;"/><text fill="#FFFFFF" font-family="Verdana" font-size="11" lengthAdjust="spacing" textLength="31" x="158" y="232.7395">value</text><polygon fill="#2E2E2E" points="267.5,211.6804,364.5,211.6804,376.5,223.6804,364.5,235.6804,267.5,235.6804,255.5,223.6804,267.5,211.6804" style="stroke:#1B1B1B;stroke-width:0.5;"/><text fill="#FFFFFF" font-family="Verdana" font-size="11" lengthAdjust="spacing" textLength="97" x="267.5" y="228.0552">is metatable set?</text><text fill="#BBBBBB" font-family="Verdana" font-size="11" lengthAdjust="spacing" textLength="14" x="241.5" y="221.3708">no</text><text fill="#BBBBBB" font-family="Verdana" font-size="11" lengthAdjust="spacing" textLength="20" x="376.5" y="221.3708">yes</text><polygon fill="#2E2E2E" points="239,255.6804,262,255.6804,252,289.0491,229,289.0491" style="stroke:#1B1B1B;stroke-width:0.5;"/><text fill="#FFFFFF" font-family="Verdana" font-size="11" lengthAdjust="spacing" textLength="13" x="239" y="276.7395">nil</text><polygon fill="#2E2E2E" points="316,415.7334,328,427.7334,316,439.7334,304,427.7334,316,415.7334" style="stroke:#1B1B1B;stroke-width:0.5;"/><polygon fill="#2E2E2E" points="244.75,449.7334,256.75,461.7334,244.75,473.7334,232.75,461.7334,244.75,449.7334" style="stroke:#1B1B1B;stroke-width:0.5;"/><polygon fill="#2E2E2E" points="217.25,493.7334,272.25,493.7334,282.25,510.4177,272.25,527.1021,217.25,527.1021" style="stroke:#1B1B1B;stroke-width:0.5;"/><text fill="#FFFFFF" font-family="Verdana" font-size="11" lengthAdjust="spacing" textLength="35" x="227.25" y="514.7925">return</text><line style="stroke:#FFFFFF;stroke-width:1.5;" x1="133" x2="133" y1="12.2969" y2="569.1021"/><rect fill="#87CEFA" height="556.8052" style="stroke:#87CEFA;stroke-width:1.0;" width="274.5" x="401.5" y="12.2969"/><polygon fill="#2E2E2E" points="455,255.6804,540,255.6804,552,267.6804,540,279.6804,455,279.6804,443,267.6804,455,255.6804" style="stroke:#1B1B1B;stroke-width:0.5;"/><text fill="#FFFFFF" font-family="Verdana" font-size="11" lengthAdjust="spacing" textLength="85" x="455" y="272.0552">is __index set?</text><text fill="#BBBBBB" font-family="Verdana" font-size="11" lengthAdjust="spacing" textLength="14" x="429" y="265.3708">no</text><text fill="#BBBBBB" font-family="Verdana" font-size="11" lengthAdjust="spacing" textLength="20" x="552" y="265.3708">yes</text><polygon fill="#2E2E2E" points="426.5,289.6804,449.5,289.6804,439.5,323.0491,416.5,323.0491" style="stroke:#1B1B1B;stroke-width:0.5;"/><text fill="#FFFFFF" font-family="Verdana" font-size="11" lengthAdjust="spacing" textLength="13" x="426.5" y="310.7395">nil</text><polygon fill="#2E2E2E" points="515,338.3647,619,338.3647,609,371.7334,505,371.7334" style="stroke:#1B1B1B;stroke-width:0.5;"/><text fill="#FFFFFF" font-family="Verdana" font-size="11" lengthAdjust="spacing" textLength="94" x="515" y="359.4238">__index(tbl,key)</text><polygon fill="#2E2E2E" points="522,289.6804,602,289.6804,614,301.6804,602,313.6804,522,313.6804,510,301.6804,522,289.6804" style="stroke:#1B1B1B;stroke-width:0.5;"/><text fill="#BBBBBB" font-family="Verdana" font-size="11" lengthAdjust="spacing" textLength="45" x="566" y="324.7395">function</text><text fill="#FFFFFF" font-family="Verdana" font-size="11" lengthAdjust="spacing" textLength="80" x="522" y="306.0552">type(__index)</text><text fill="#BBBBBB" font-family="Verdana" font-size="11" lengthAdjust="spacing" textLength="28" x="614" y="299.3708">table</text><ellipse cx="662" cy="301.6804" fill="#303030" rx="10" ry="10" style="stroke:#E7E7E7;stroke-width:0.5;"/><path d="M665.3799,304.9304 L664.2466,304.9304 L663.4624,302.7014 L660.0034,302.7014 L659.2192,304.9304 L658.1396,304.9304 L661.0508,296.9329 L662.4688,296.9329 Z M663.1348,301.7883 L661.7329,297.8621 L660.3257,301.7883 Z " fill="#FFFFFF"/><polygon fill="#2E2E2E" points="497.5,381.7334,509.5,393.7334,497.5,405.7334,485.5,393.7334,497.5,381.7334" style="stroke:#1B1B1B;stroke-width:0.5;"/><line style="stroke:#FFFFFF;stroke-width:1.5;" x1="401.5" x2="401.5" y1="12.2969" y2="569.1021"/><line style="stroke:#FFFFFF;stroke-width:1.5;" x1="676" x2="676" y1="12.2969" y2="569.1021"/><line style="stroke:#FFFFFF;stroke-width:1.0;" x1="69" x2="69" y1="63.4961" y2="94.3118"/><polygon fill="#FFFFFF" points="65,84.3118,69,94.3118,73,84.3118,69,88.3118" style="stroke:#FFFFFF;stroke-width:1.0;"/><line style="stroke:#FFFFFF;stroke-width:1.0;" x1="302.75" x2="302.75" y1="93.4961" y2="147.6804"/><polygon fill="#FFFFFF" points="298.75,137.6804,302.75,147.6804,306.75,137.6804,302.75,141.6804" style="stroke:#FFFFFF;stroke-width:1.0;"/><line style="stroke:#FFFFFF;stroke-width:1.0;" x1="255.5" x2="245.5" y1="223.6804" y2="223.6804"/><line style="stroke:#FFFFFF;stroke-width:1.0;" x1="245.5" x2="245.5" y1="223.6804" y2="255.6804"/><polygon fill="#FFFFFF" points="241.5,245.6804,245.5,255.6804,249.5,245.6804,245.5,249.6804" style="stroke:#FFFFFF;stroke-width:1.0;"/><line style="stroke:#FFFFFF;stroke-width:1.0;" x1="245.5" x2="245.5" y1="289.0491" y2="427.7334"/><line style="stroke:#FFFFFF;stroke-width:1.0;" x1="245.5" x2="304" y1="427.7334" y2="427.7334"/><polygon fill="#FFFFFF" points="294,423.7334,304,427.7334,294,431.7334,298,427.7334" style="stroke:#FFFFFF;stroke-width:1.0;"/><line style="stroke:#FFFFFF;stroke-width:1.0;" x1="202.25" x2="173.5" y1="179.6804" y2="179.6804"/><line style="stroke:#FFFFFF;stroke-width:1.0;" x1="173.5" x2="173.5" y1="179.6804" y2="211.6804"/><polygon fill="#FFFFFF" points="169.5,201.6804,173.5,211.6804,177.5,201.6804,173.5,205.6804" style="stroke:#FFFFFF;stroke-width:1.0;"/><line style="stroke:#FFFFFF;stroke-width:1.0;" x1="287.25" x2="316" y1="179.6804" y2="179.6804"/><line style="stroke:#FFFFFF;stroke-width:1.0;" x1="316" x2="316" y1="179.6804" y2="211.6804"/><polygon fill="#FFFFFF" points="312,201.6804,316,211.6804,320,201.6804,316,205.6804" style="stroke:#FFFFFF;stroke-width:1.0;"/><line style="stroke:#FFFFFF;stroke-width:1.0;" x1="173.5" x2="173.5" y1="245.0491" y2="461.7334"/><line style="stroke:#FFFFFF;stroke-width:1.0;" x1="173.5" x2="232.75" y1="461.7334" y2="461.7334"/><polygon fill="#FFFFFF" points="222.75,457.7334,232.75,461.7334,222.75,465.7334,226.75,461.7334" style="stroke:#FFFFFF;stroke-width:1.0;"/><line style="stroke:#FFFFFF;stroke-width:1.0;" x1="316" x2="316" y1="439.7334" y2="461.7334"/><line style="stroke:#FFFFFF;stroke-width:1.0;" x1="316" x2="256.75" y1="461.7334" y2="461.7334"/><polygon fill="#FFFFFF" points="266.75,457.7334,256.75,461.7334,266.75,465.7334,262.75,461.7334" style="stroke:#FFFFFF;stroke-width:1.0;"/><line style="stroke:#FFFFFF;stroke-width:1.0;" x1="244.75" x2="244.75" y1="149.1804" y2="167.6804"/><polygon fill="#FFFFFF" points="240.75,157.6804,244.75,167.6804,248.75,157.6804,244.75,161.6804" style="stroke:#FFFFFF;stroke-width:1.0;"/><line style="stroke:#FFFFFF;stroke-width:1.0;" x1="244.75" x2="244.75" y1="473.7334" y2="493.7334"/><polygon fill="#FFFFFF" points="240.75,483.7334,244.75,493.7334,248.75,483.7334,244.75,487.7334" style="stroke:#FFFFFF;stroke-width:1.0;"/><line style="stroke:#FFFFFF;stroke-width:1.0;" x1="562" x2="562" y1="313.6804" y2="338.3647"/><polygon fill="#FFFFFF" points="558,328.3647,562,338.3647,566,328.3647,562,332.3647" style="stroke:#FFFFFF;stroke-width:1.0;"/><line style="stroke:#FFFFFF;stroke-width:1.0;" x1="614" x2="652" y1="301.6804" y2="301.6804"/><polygon fill="#FFFFFF" points="642,297.6804,652,301.6804,642,305.6804,646,301.6804" style="stroke:#FFFFFF;stroke-width:1.0;"/><line style="stroke:#FFFFFF;stroke-width:1.0;" x1="562" x2="562" y1="371.7334" y2="393.7334"/><line style="stroke:#FFFFFF;stroke-width:1.0;" x1="562" x2="509.5" y1="393.7334" y2="393.7334"/><polygon fill="#FFFFFF" points="519.5,389.7334,509.5,393.7334,519.5,397.7334,515.5,393.7334" style="stroke:#FFFFFF;stroke-width:1.0;"/><line style="stroke:#FFFFFF;stroke-width:1.0;" x1="443" x2="433" y1="267.6804" y2="267.6804"/><line style="stroke:#FFFFFF;stroke-width:1.0;" x1="433" x2="433" y1="267.6804" y2="289.6804"/><polygon fill="#FFFFFF" points="429,279.6804,433,289.6804,437,279.6804,433,283.6804" style="stroke:#FFFFFF;stroke-width:1.0;"/><line style="stroke:#FFFFFF;stroke-width:1.0;" x1="552" x2="562" y1="267.6804" y2="267.6804"/><line style="stroke:#FFFFFF;stroke-width:1.0;" x1="562" x2="562" y1="267.6804" y2="289.6804"/><polygon fill="#FFFFFF" points="558,279.6804,562,289.6804,566,279.6804,562,283.6804" style="stroke:#FFFFFF;stroke-width:1.0;"/><line style="stroke:#FFFFFF;stroke-width:1.0;" x1="433" x2="433" y1="323.0491" y2="393.7334"/><line style="stroke:#FFFFFF;stroke-width:1.0;" x1="433" x2="485.5" y1="393.7334" y2="393.7334"/><polygon fill="#FFFFFF" points="475.5,389.7334,485.5,393.7334,475.5,397.7334,479.5,393.7334" style="stroke:#FFFFFF;stroke-width:1.0;"/><line style="stroke:#FFFFFF;stroke-width:1.0;" x1="69" x2="69" y1="127.6804" y2="133.6804"/><line style="stroke:#FFFFFF;stroke-width:1.0;" x1="69" x2="215.75" y1="133.6804" y2="133.6804"/><line style="stroke:#FFFFFF;stroke-width:1.0;" x1="215.75" x2="215.75" y1="133.6804" y2="147.6804"/><polygon fill="#FFFFFF" points="211.75,137.6804,215.75,147.6804,219.75,137.6804,215.75,141.6804" style="stroke:#FFFFFF;stroke-width:1.0;"/><line style="stroke:#FFFFFF;stroke-width:1.0;" x1="376.5" x2="497.5" y1="223.6804" y2="223.6804"/><line style="stroke:#FFFFFF;stroke-width:1.0;" x1="497.5" x2="497.5" y1="223.6804" y2="255.6804"/><polygon fill="#FFFFFF" points="493.5,245.6804,497.5,255.6804,501.5,245.6804,497.5,249.6804" style="stroke:#FFFFFF;stroke-width:1.0;"/><line style="stroke:#FFFFFF;stroke-width:1.0;" x1="497.5" x2="497.5" y1="405.7334" y2="427.7334"/><line style="stroke:#FFFFFF;stroke-width:1.0;" x1="497.5" x2="328" y1="427.7334" y2="427.7334"/><polygon fill="#FFFFFF" points="338,423.7334,328,427.7334,338,431.7334,334,427.7334" style="stroke:#FFFFFF;stroke-width:1.0;"/><line style="stroke:#FFFFFF;stroke-width:1.0;" x1="244.75" x2="244.75" y1="527.1021" y2="532.1021"/><line style="stroke:#FFFFFF;stroke-width:1.0;" x1="244.75" x2="98" y1="532.1021" y2="532.1021"/><line style="stroke:#FFFFFF;stroke-width:1.0;" x1="98" x2="98" y1="532.1021" y2="547.1021"/><polygon fill="#FFFFFF" points="94,537.1021,98,547.1021,102,537.1021,98,541.1021" style="stroke:#FFFFFF;stroke-width:1.0;"/><text fill="#FFFFFF" font-family="sans-serif" font-size="18" lengthAdjust="spacing" textLength="41" x="56.5" y="29.6992">code</text><text fill="#FFFFFF" font-family="sans-serif" font-size="18" lengthAdjust="spacing" textLength="43" x="248.75" y="29.6992">table</text><text fill="#FFFFFF" font-family="sans-serif" font-size="18" lengthAdjust="spacing" textLength="87" x="498.25" y="29.6992">metatable</text><!--SRC=[RP71JiCm343l-GgZNLg9iVk4XXXNJko8qEGrtXOrTQh41Ihru_6QLcE2IsB5VY-9VITdQWWYMHiffQN5M1zyHoRLZbkCsC0Mg_eKGyVs9VWGGI9oqXInc66n4oA_LMAe1gY2LRBrJipo_Uoi9VvORamIZ6BMN-XjUAYfVymrW2Tqh8wtq6Dso0221qytUF5S6c8BMUoEKBW4ge54ybI2_e2Xw2cL1c3zYUfP6VA9eE1mEPk8XWH7-GsNInHavrSQPN2o0GoBLtSwowxkn_SrmrKpvYVtVk_OqlU_vglxZptpqhTKJ8PofiShvgfB1tAK1SUEAt61vrEzOk8BEVXxxKsvcW6sxcX-HtdFgpRSh2D95tbZT88wgj3-0000]--></g></svg>
